<?xml version="1.0" encoding="UTF-8" standalone="no"?>
<!-- Created with Inkscape (http://www.inkscape.org/) -->

<svg
   width="100mm"
   height="100mm"
   viewBox="0 0 100 100"
   version="1.1"
   id="svg49099"
   sodipodi:docname="approximation1_copy.svg"
   inkscape:version="1.2.2 (b0a8486541, 2022-12-01)"
   xmlns:inkscape="http://www.inkscape.org/namespaces/inkscape"
   xmlns:sodipodi="http://sodipodi.sourceforge.net/DTD/sodipodi-0.dtd"
   xmlns="http://www.w3.org/2000/svg"
   xmlns:svg="http://www.w3.org/2000/svg"
   xmlns:ns2="http://www.iki.fi/pav/software/textext/">
  <sodipodi:namedview
     id="namedview49101"
     pagecolor="#ffffff"
     bordercolor="#000000"
     borderopacity="0.25"
     inkscape:showpageshadow="2"
     inkscape:pageopacity="0.0"
     inkscape:pagecheckerboard="0"
     inkscape:deskcolor="#d1d1d1"
     inkscape:document-units="mm"
     showgrid="false"
     inkscape:zoom="2.2601823"
     inkscape:cx="177.86176"
     inkscape:cy="209.93882"
     inkscape:window-width="1900"
     inkscape:window-height="1044"
     inkscape:window-x="10"
     inkscape:window-y="26"
     inkscape:window-maximized="1"
     inkscape:current-layer="layer1" />
  <defs
     id="defs49096">
    <pattern
       inkscape:collect="always"
       patternUnits="userSpaceOnUse"
       width="30.066020"
       height="5.1805778"
       id="Wavy"
       inkscape:stockid="Wavy"
       inkscape:isstock="true">
      <path
         style="fill:black;stroke:none;"
         d="M 7.597,0.061 C 5.079,-0.187 2.656,0.302 -0.01,1.788 L -0.01,3.061 C 2.773,1.431 5.173,1.052 7.472,1.280 C 9.770,1.508 11.969,2.361 14.253,3.218 C 18.820,4.931 23.804,6.676 30.066,3.061 L 30.062,1.788 C 23.622,5.497 19.246,3.770 14.691,2.061 C 12.413,1.207 10.115,0.311 7.597,0.061 z "
         id="path72982" />
    </pattern>
  </defs>
  <g
     inkscape:label="Layer 1"
     inkscape:groupmode="layer"
     id="layer1">
    <ellipse
       style="fill:none;fill-rule:evenodd;stroke-width:0.555;stroke-dasharray:none;stroke-dashoffset:0.4665;stroke:#1a1a1a"
       id="path50003"
       cx="48.512901"
       cy="48.900024"
       rx="39.010029"
       ry="20.892906" />
    <path
       style="fill:none;fill-rule:evenodd;stroke:#8660cb;stroke-width:0.255;stroke-dasharray:none;stroke-dashoffset:1.76315"
       d="m 27.090124,40.276999 -8.983928,13.524145 6.304276,1.464651 c 0,0 17.195939,-3.858894 11.356117,3.240591 12.74888,-1.370223 10.363468,-0.49248 10.363468,-0.49248 l 2.92485,1.881722 c 0,0 3.344235,0.587222 6.539756,2.153051 3.195521,1.56583 9.570514,-2.977607 9.570514,-2.977607 l 4.853135,-1.293607 c 0,0 2.392091,-1.543911 3.860423,-4.462513 1.673932,-3.327274 -1.666295,-8.00327 -1.666295,-8.00327 l -6.505483,-5.442651 c 0,0 -1.312284,-1.38648 -4.86253,-2.284382 -7.244491,-1.460741 -5.630595,-2.545524 -8.609198,-4.045013 0,0 -5.162182,0.947113 -10.803904,1.599133 -5.641723,0.652019 -14.341201,5.13823 -14.341201,5.13823 z"
       id="path50485"
       sodipodi:nodetypes="ccccccsccsccccsc" />
    <path
       style="fill:none;fill-rule:evenodd;stroke:#d56a11;stroke-width:0.255;stroke-dasharray:none;stroke-dashoffset:1.76315"
       d="m 23.194323,71.005107 c 3.390636,1.168231 11.118185,-1.007666 13.891101,2.721452 3.48094,2.250218 4.603643,-1.881455 7.944465,1.286928 3.088235,1.569324 6.179877,-1.479161 9.901023,-2.305731 3.155089,-2.086277 5.166307,-1.314696 9.071412,-0.222829 3.468231,-0.05231 6.803209,4.165744 8.562565,0.127456 1.22443,-2.357024 2.733734,-1.699506 5.267872,-3.532673 2.118963,-3.155463 2.66683,-4.174966 7.010579,-1.243286 2.606008,2.097946 3.527818,-1.660599 4.627604,-5.11913 1.072516,-3.100877 -1.581253,-4.412753 2.339069,-6.431694 2.70152,-0.05859 3.819895,-1.235631 2.853618,-5.365667 -0.143934,-3.296979 -0.5508,-6.664074 -1.603126,-9.804425 -1.143929,-3.022848 -2.273404,-11.678618 -5.160789,-8.965506 -3.611366,0.861336 -6.146888,0.948904 -6.929947,-1.467905 -0.643433,-2.896632 -1.570733,-7.28939 -5.317866,-7.234728 -3.424414,-0.06374 -4.864301,-2.290871 -6.180773,-0.176978 -0.66041,3.588698 -3.037766,1.412918 -3.27542,-0.811095 -1.146383,-2.621915 -1.289268,-4.039599 -5.261695,-2.339864 -3.950987,0.750502 -5.019728,1.1832 -8.709155,2.127454 -4.065085,0.506446 -7.236469,1.086192 -11.490134,1.147162 -3.867459,-1.081088 -7.959315,-1.527203 -11.994621,-1.73171 -3.956273,-0.01159 -8.218889,-0.517742 -11.731537,1.667504 -2.347592,1.358675 -7.7898336,4.761205 -4.873477,7.704982 2.93028,1.977465 -0.108658,4.419174 -3.0910333,6.669655 -4.4558642,1.346772 -4.7275201,7.511181 -5.0301183,11.480089 -0.7169808,4.230049 4.7990773,8.641188 6.0542646,12.441691 0.472732,3.345804 2.516347,4.575976 6.456355,6.158969 z"
       id="path50550"
       sodipodi:nodetypes="cccccccccccccccccccccccccccc" />
    <g
       transform="matrix(0.352778,0,0,0.352778,21.133393,17.715714)"
       ns2:version="1.8.2"
       ns2:texconverter="pdflatex"
       ns2:pdfconverter="inkscape"
       ns2:text="$D_i$"
       ns2:preamble="/home/kyrem1/.config/inkscape/extensions/textext/default_packages.tex"
       ns2:scale="1.0"
       ns2:alignment="middle center"
       ns2:stroke-to-path="0"
       ns2:jacobian_sqrt="0.352778"
       id="g51817"
       style="fill:#d56a11;fill-opacity:1">
      <defs
         id="id-169b0f49-d841-409a-aea4-bcc8bf719006">
        <g
           id="id-d52bfd63-ee49-44e2-9580-170b3371b8f6">
          <g
             id="id-dfb2249b-35f6-4ed6-a805-89aaf1acd3f9" />
          <g
             id="id-6fdf0608-d5b2-4908-91b8-1ea2930e5f46">
            <path
               d="m 1.578125,-0.78125 c -0.09375,0.390625 -0.109375,0.46875 -0.90625,0.46875 -0.15625,0 -0.265625,0 -0.265625,0.1875 C 0.40625,0 0.484375,0 0.671875,0 h 3.3125 c 2.0625,0 4.03125,-2.109375 4.03125,-4.28125 0,-1.40625 -0.84375,-2.53125 -2.34375,-2.53125 h -3.34375 c -0.1875,0 -0.296875,0 -0.296875,0.1875 0,0.125 0.078125,0.125 0.28125,0.125 0.125,0 0.3125,0.015625 0.421875,0.015625 0.171875,0.03125 0.21875,0.046875 0.21875,0.171875 0,0.03125 0,0.0625 -0.03125,0.1875 z M 3.734375,-6.125 C 3.828125,-6.46875 3.84375,-6.5 4.28125,-6.5 h 1.0625 c 0.96875,0 1.796875,0.53125 1.796875,1.84375 0,0.484375 -0.1875,2.125 -1.046875,3.21875 -0.28125,0.375 -1.0625,1.125 -2.296875,1.125 h -1.125 c -0.140625,0 -0.15625,0 -0.21875,0 -0.09375,-0.015625 -0.125,-0.03125 -0.125,-0.109375 0,-0.03125 0,-0.046875 0.046875,-0.21875 z m 0,0"
               id="id-d1262af7-13ad-424e-9f96-0cbeb299a397" />
          </g>
          <g
             id="id-25bfac9c-c650-4b74-8e5a-0ce2ca616c26" />
          <g
             id="id-5ea30686-d9e7-40e8-b293-b9bd5db79cd6">
            <path
               d="m 2.265625,-4.359375 c 0,-0.109375 -0.09375,-0.265625 -0.28125,-0.265625 -0.1875,0 -0.390625,0.1875 -0.390625,0.390625 0,0.109375 0.078125,0.265625 0.28125,0.265625 0.1875,0 0.390625,-0.203125 0.390625,-0.390625 z M 0.84375,-0.8125 c -0.03125,0.09375 -0.0625,0.171875 -0.0625,0.296875 0,0.328125 0.265625,0.578125 0.65625,0.578125 0.6875,0 1,-0.953125 1,-1.0625 0,-0.09375 -0.09375,-0.09375 -0.109375,-0.09375 -0.09375,0 -0.109375,0.046875 -0.140625,0.125 -0.15625,0.5625 -0.453125,0.84375 -0.734375,0.84375 -0.140625,0 -0.171875,-0.09375 -0.171875,-0.25 0,-0.15625 0.046875,-0.28125 0.109375,-0.4375 C 1.46875,-1 1.546875,-1.1875 1.609375,-1.375 1.671875,-1.546875 1.9375,-2.171875 1.953125,-2.265625 1.984375,-2.328125 2,-2.40625 2,-2.484375 2,-2.8125 1.71875,-3.078125 1.34375,-3.078125 0.640625,-3.078125 0.328125,-2.125 0.328125,-2 c 0,0.078125 0.09375,0.078125 0.125,0.078125 0.09375,0 0.09375,-0.03125 0.125,-0.109375 C 0.75,-2.625 1.0625,-2.875 1.3125,-2.875 c 0.109375,0 0.171875,0.046875 0.171875,0.234375 0,0.171875 -0.03125,0.265625 -0.203125,0.703125 z m 0,0"
               id="id-aa4ae1c6-1736-4712-806b-995ae3c2ae32" />
          </g>
        </g>
      </defs>
      <g
         fill="#000000"
         fill-opacity="1"
         id="id-72446e90-fab1-4b8d-9a21-3fd8af7ed1f4"
         transform="translate(-149.118,-127.953)"
         style="fill:#d56a11;fill-opacity:1">
        <g
           transform="translate(148.712,134.765)"
           id="g51810"
           style="fill:#d56a11;fill-opacity:1">
          <path
             d="m 1.578125,-0.78125 c -0.09375,0.390625 -0.109375,0.46875 -0.90625,0.46875 -0.15625,0 -0.265625,0 -0.265625,0.1875 C 0.40625,0 0.484375,0 0.671875,0 h 3.3125 c 2.0625,0 4.03125,-2.109375 4.03125,-4.28125 0,-1.40625 -0.84375,-2.53125 -2.34375,-2.53125 h -3.34375 c -0.1875,0 -0.296875,0 -0.296875,0.1875 0,0.125 0.078125,0.125 0.28125,0.125 0.125,0 0.3125,0.015625 0.421875,0.015625 0.171875,0.03125 0.21875,0.046875 0.21875,0.171875 0,0.03125 0,0.0625 -0.03125,0.1875 z M 3.734375,-6.125 C 3.828125,-6.46875 3.84375,-6.5 4.28125,-6.5 h 1.0625 c 0.96875,0 1.796875,0.53125 1.796875,1.84375 0,0.484375 -0.1875,2.125 -1.046875,3.21875 -0.28125,0.375 -1.0625,1.125 -2.296875,1.125 h -1.125 c -0.140625,0 -0.15625,0 -0.21875,0 -0.09375,-0.015625 -0.125,-0.03125 -0.125,-0.109375 0,-0.03125 0,-0.046875 0.046875,-0.21875 z m 0,0"
             id="id-8e7daf31-67fd-4569-bf6d-e3e407cca759"
             style="fill:#d56a11;fill-opacity:1" />
        </g>
      </g>
      <g
         fill="#000000"
         fill-opacity="1"
         id="id-f986a765-122f-4168-9564-77117c5ee77e"
         transform="translate(-149.118,-127.953)"
         style="fill:#d56a11;fill-opacity:1">
        <g
           transform="translate(156.961,136.259)"
           id="g51814"
           style="fill:#d56a11;fill-opacity:1">
          <path
             d="m 2.265625,-4.359375 c 0,-0.109375 -0.09375,-0.265625 -0.28125,-0.265625 -0.1875,0 -0.390625,0.1875 -0.390625,0.390625 0,0.109375 0.078125,0.265625 0.28125,0.265625 0.1875,0 0.390625,-0.203125 0.390625,-0.390625 z M 0.84375,-0.8125 c -0.03125,0.09375 -0.0625,0.171875 -0.0625,0.296875 0,0.328125 0.265625,0.578125 0.65625,0.578125 0.6875,0 1,-0.953125 1,-1.0625 0,-0.09375 -0.09375,-0.09375 -0.109375,-0.09375 -0.09375,0 -0.109375,0.046875 -0.140625,0.125 -0.15625,0.5625 -0.453125,0.84375 -0.734375,0.84375 -0.140625,0 -0.171875,-0.09375 -0.171875,-0.25 0,-0.15625 0.046875,-0.28125 0.109375,-0.4375 C 1.46875,-1 1.546875,-1.1875 1.609375,-1.375 1.671875,-1.546875 1.9375,-2.171875 1.953125,-2.265625 1.984375,-2.328125 2,-2.40625 2,-2.484375 2,-2.8125 1.71875,-3.078125 1.34375,-3.078125 0.640625,-3.078125 0.328125,-2.125 0.328125,-2 c 0,0.078125 0.09375,0.078125 0.125,0.078125 0.09375,0 0.09375,-0.03125 0.125,-0.109375 C 0.75,-2.625 1.0625,-2.875 1.3125,-2.875 c 0.109375,0 0.171875,0.046875 0.171875,0.234375 0,0.171875 -0.03125,0.265625 -0.203125,0.703125 z m 0,0"
             id="id-361224a1-05ea-49cd-90be-a60f3159e8f0"
             style="fill:#d56a11;fill-opacity:1" />
        </g>
      </g>
    </g>
    <g
       transform="matrix(0.352778,0,0,0.352778,28.636404,46.322429)"
       ns2:version="1.8.2"
       ns2:texconverter="pdflatex"
       ns2:pdfconverter="inkscape"
       ns2:text="$A_i$"
       ns2:preamble="/home/kyrem1/.config/inkscape/extensions/textext/default_packages.tex"
       ns2:scale="1.0"
       ns2:alignment="middle center"
       ns2:stroke-to-path="0"
       ns2:jacobian_sqrt="0.352778"
       id="g51894"
       style="fill:#8660cb;fill-opacity:1">
      <defs
         id="id-cecfda60-5503-44c2-9b22-2423d7a63a05">
        <g
           id="id-8294e471-35f0-4d7d-a6fc-5f0be67c95c2">
          <g
             id="id-2cc56800-812d-443b-be2e-64ed67db86c5" />
          <g
             id="id-b7c801d1-b920-4009-a029-76a8653ccacf">
            <path
               d="M 1.78125,-1.140625 C 1.390625,-0.484375 1,-0.34375 0.5625,-0.3125 0.4375,-0.296875 0.34375,-0.296875 0.34375,-0.109375 0.34375,-0.046875 0.40625,0 0.484375,0 0.75,0 1.0625,-0.03125 1.328125,-0.03125 c 0.34375,0 0.6875,0.03125 1,0.03125 0.0625,0 0.1875,0 0.1875,-0.1875 0,-0.109375 -0.078125,-0.125 -0.15625,-0.125 -0.21875,-0.015625 -0.46875,-0.09375 -0.46875,-0.34375 0,-0.125 0.0625,-0.234375 0.140625,-0.375 l 0.765625,-1.265625 h 2.5 c 0.015625,0.203125 0.15625,1.5625 0.15625,1.65625 0,0.296875 -0.515625,0.328125 -0.71875,0.328125 C 4.59375,-0.3125 4.5,-0.3125 4.5,-0.109375 4.5,0 4.609375,0 4.640625,0 5.046875,0 5.46875,-0.03125 5.875,-0.03125 6.125,-0.03125 6.765625,0 7.015625,0 7.0625,0 7.1875,0 7.1875,-0.203125 7.1875,-0.3125 7.09375,-0.3125 6.953125,-0.3125 6.34375,-0.3125 6.34375,-0.375 6.3125,-0.671875 l -0.609375,-6.21875 c -0.015625,-0.203125 -0.015625,-0.25 -0.1875,-0.25 -0.15625,0 -0.203125,0.078125 -0.265625,0.171875 z M 2.984375,-2.609375 4.9375,-5.90625 5.265625,-2.609375 Z m 0,0"
               id="id-7af27002-55be-492c-bd80-a0162b219c45" />
          </g>
          <g
             id="id-be2e35d7-1af2-4768-8e52-75736128918f" />
          <g
             id="id-a42bdf35-ccef-402c-935e-ab9ea12dcd25">
            <path
               d="m 2.265625,-4.359375 c 0,-0.109375 -0.09375,-0.265625 -0.28125,-0.265625 -0.1875,0 -0.390625,0.1875 -0.390625,0.390625 0,0.109375 0.078125,0.265625 0.28125,0.265625 0.1875,0 0.390625,-0.203125 0.390625,-0.390625 z M 0.84375,-0.8125 c -0.03125,0.09375 -0.0625,0.171875 -0.0625,0.296875 0,0.328125 0.265625,0.578125 0.65625,0.578125 0.6875,0 1,-0.953125 1,-1.0625 0,-0.09375 -0.09375,-0.09375 -0.109375,-0.09375 -0.09375,0 -0.109375,0.046875 -0.140625,0.125 -0.15625,0.5625 -0.453125,0.84375 -0.734375,0.84375 -0.140625,0 -0.171875,-0.09375 -0.171875,-0.25 0,-0.15625 0.046875,-0.28125 0.109375,-0.4375 C 1.46875,-1 1.546875,-1.1875 1.609375,-1.375 1.671875,-1.546875 1.9375,-2.171875 1.953125,-2.265625 1.984375,-2.328125 2,-2.40625 2,-2.484375 2,-2.8125 1.71875,-3.078125 1.34375,-3.078125 0.640625,-3.078125 0.328125,-2.125 0.328125,-2 c 0,0.078125 0.09375,0.078125 0.125,0.078125 0.09375,0 0.09375,-0.03125 0.125,-0.109375 C 0.75,-2.625 1.0625,-2.875 1.3125,-2.875 c 0.109375,0 0.171875,0.046875 0.171875,0.234375 0,0.171875 -0.03125,0.265625 -0.203125,0.703125 z m 0,0"
               id="id-7c8d152c-e850-4c0e-ab47-40434d023aba" />
          </g>
        </g>
      </defs>
      <g
         fill="#000000"
         fill-opacity="1"
         id="id-42c50cae-d7c4-4172-a63b-1aa579dcca86"
         transform="translate(-149.056,-127.624)"
         style="fill:#8660cb;fill-opacity:1">
        <g
           transform="translate(148.712,134.765)"
           id="g51887"
           style="fill:#8660cb;fill-opacity:1">
          <path
             d="M 1.78125,-1.140625 C 1.390625,-0.484375 1,-0.34375 0.5625,-0.3125 0.4375,-0.296875 0.34375,-0.296875 0.34375,-0.109375 0.34375,-0.046875 0.40625,0 0.484375,0 0.75,0 1.0625,-0.03125 1.328125,-0.03125 c 0.34375,0 0.6875,0.03125 1,0.03125 0.0625,0 0.1875,0 0.1875,-0.1875 0,-0.109375 -0.078125,-0.125 -0.15625,-0.125 -0.21875,-0.015625 -0.46875,-0.09375 -0.46875,-0.34375 0,-0.125 0.0625,-0.234375 0.140625,-0.375 l 0.765625,-1.265625 h 2.5 c 0.015625,0.203125 0.15625,1.5625 0.15625,1.65625 0,0.296875 -0.515625,0.328125 -0.71875,0.328125 C 4.59375,-0.3125 4.5,-0.3125 4.5,-0.109375 4.5,0 4.609375,0 4.640625,0 5.046875,0 5.46875,-0.03125 5.875,-0.03125 6.125,-0.03125 6.765625,0 7.015625,0 7.0625,0 7.1875,0 7.1875,-0.203125 7.1875,-0.3125 7.09375,-0.3125 6.953125,-0.3125 6.34375,-0.3125 6.34375,-0.375 6.3125,-0.671875 l -0.609375,-6.21875 c -0.015625,-0.203125 -0.015625,-0.25 -0.1875,-0.25 -0.15625,0 -0.203125,0.078125 -0.265625,0.171875 z M 2.984375,-2.609375 4.9375,-5.90625 5.265625,-2.609375 Z m 0,0"
             id="id-8f0a556f-6618-4d97-97de-c95901d22923"
             style="fill:#8660cb;fill-opacity:1" />
        </g>
      </g>
      <g
         fill="#000000"
         fill-opacity="1"
         id="id-b7da8e88-2acb-4336-a609-e5309bfa900a"
         transform="translate(-149.056,-127.624)"
         style="fill:#8660cb;fill-opacity:1">
        <g
           transform="translate(156.184,136.259)"
           id="g51891"
           style="fill:#8660cb;fill-opacity:1">
          <path
             d="m 2.265625,-4.359375 c 0,-0.109375 -0.09375,-0.265625 -0.28125,-0.265625 -0.1875,0 -0.390625,0.1875 -0.390625,0.390625 0,0.109375 0.078125,0.265625 0.28125,0.265625 0.1875,0 0.390625,-0.203125 0.390625,-0.390625 z M 0.84375,-0.8125 c -0.03125,0.09375 -0.0625,0.171875 -0.0625,0.296875 0,0.328125 0.265625,0.578125 0.65625,0.578125 0.6875,0 1,-0.953125 1,-1.0625 0,-0.09375 -0.09375,-0.09375 -0.109375,-0.09375 -0.09375,0 -0.109375,0.046875 -0.140625,0.125 -0.15625,0.5625 -0.453125,0.84375 -0.734375,0.84375 -0.140625,0 -0.171875,-0.09375 -0.171875,-0.25 0,-0.15625 0.046875,-0.28125 0.109375,-0.4375 C 1.46875,-1 1.546875,-1.1875 1.609375,-1.375 1.671875,-1.546875 1.9375,-2.171875 1.953125,-2.265625 1.984375,-2.328125 2,-2.40625 2,-2.484375 2,-2.8125 1.71875,-3.078125 1.34375,-3.078125 0.640625,-3.078125 0.328125,-2.125 0.328125,-2 c 0,0.078125 0.09375,0.078125 0.125,0.078125 0.09375,0 0.09375,-0.03125 0.125,-0.109375 C 0.75,-2.625 1.0625,-2.875 1.3125,-2.875 c 0.109375,0 0.171875,0.046875 0.171875,0.234375 0,0.171875 -0.03125,0.265625 -0.203125,0.703125 z m 0,0"
             id="id-a7fcea9d-4efb-4ed1-8c56-43996fee14ee"
             style="fill:#8660cb;fill-opacity:1" />
        </g>
      </g>
    </g>
    <path
       style="opacity:0.06213285;mix-blend-mode:normal;fill:url(#Wavy);fill-rule:nonzero;stroke:#d56a11;stroke-width:0.426417;stroke-dashoffset:1.76315;fill-opacity:1"
       d="m 172.11001,262.2936 c -33.15021,-1.60492 -62.17795,-8.27584 -86.401251,-19.85602 -24.945633,-11.9255 -41.445733,-28.1255 -46.84525,-45.99325 -1.099255,-3.63759 -1.205603,-4.6325 -1.229626,-11.5035 -0.0313,-8.9511 0.587792,-11.7076 4.377383,-19.49036 13.042133,-26.7849 52.398773,-48.09935 102.446104,-55.48192 14.47766,-2.13562 19.27066,-2.43462 38.93492,-2.42887 19.64445,0.006 24.61901,0.31616 38.93491,2.42955 33.91321,5.00646 63.58192,16.6041 83.46087,32.62525 11.19352,9.02125 18.58119,19.32373 22.11843,30.84529 1.12502,3.66443 1.22142,4.55761 1.21755,11.27984 -0.005,8.63644 -0.65599,11.61715 -4.12194,18.87281 -2.9689,6.21513 -6.02711,10.52088 -11.53182,16.23604 -12.50403,12.98206 -29.54206,22.94113 -52.34633,30.59749 -26.73414,8.97578 -59.23748,13.30924 -89.01395,11.86765 z m 49.24035,-26.51054 c 6.22318,-1.28155 14.66779,-5.04034 22.46414,-9.99903 2.63738,-1.67745 4.31086,-2.27999 11.91708,-4.29077 5.31531,-1.40515 9.5085,-2.76636 10.50078,-3.40882 5.15957,-3.34055 12.89343,-13.3842 14.57878,-18.93284 2.10345,-6.92515 -0.38753,-17.44926 -6.36252,-26.88088 -0.92253,-1.45622 -23.42317,-20.64767 -28.22954,-24.07779 -4.60833,-3.28879 -9.48395,-5.15938 -20.10406,-7.71317 -11.92721,-2.86811 -16.03707,-4.64962 -20.91962,-9.06807 -1.51036,-1.36679 -3.85047,-3.1501 -5.20025,-3.96289 -2.13945,-1.28831 -2.66631,-1.43118 -4.10859,-1.11411 -2.86582,0.63001 -24.72525,3.91336 -33.95272,5.0998 -4.86686,0.62576 -10.24254,1.42926 -11.94594,1.78556 -10.30735,2.15596 -26.58654,8.19202 -43.26102,16.04049 l -4.76856,2.24449 -17.230694,25.99932 c -9.476881,14.29962 -17.086883,26.12589 -16.911112,26.2806 0.175771,0.15471 5.752095,1.52219 12.391832,3.03885 l 12.07225,2.75756 4.924262,-0.96771 c 6.414512,-1.26057 16.416052,-2.53373 22.869562,-2.91121 9.66551,-0.56536 16.9343,1.17621 18.48547,4.42903 0.70407,1.47645 0.70457,1.71857 0.008,3.89849 -0.40846,1.27835 -1.6342,3.5077 -2.72386,4.95411 -1.08966,1.44641 -1.90188,2.70916 -1.80491,2.80612 0.0969,0.097 4.22284,-0.23624 9.16862,-0.74045 18.04267,-1.83939 29.52553,-2.58729 29.94515,-1.95038 0.15642,0.23743 2.80658,2.06587 5.88923,4.0632 5.21679,3.38009 5.96573,3.72265 10.81763,4.94802 5.83154,1.47277 11.99667,3.5075 15.6546,5.1666 7.30729,3.31433 9.91013,3.7262 15.83597,2.50588 z"
       id="path71346"
       transform="scale(0.26458333)" />
    <g
       transform="matrix(0.352778,0,0,0.352778,20.301082,25.236586)"
       ns2:version="1.8.2"
       ns2:texconverter="pdflatex"
       ns2:pdfconverter="inkscape"
       ns2:text="$\\Omega_i^+$"
       ns2:preamble="/home/kyrem1/.config/inkscape/extensions/textext/default_packages.tex"
       ns2:scale="1.0"
       ns2:alignment="middle center"
       ns2:stroke-to-path="0"
       ns2:inkscapeversion="1.2.2"
       ns2:jacobian_sqrt="0.352778"
       id="g73587">
      <defs
         id="id-e1cb878e-a1d0-46ad-9cc6-1acc15b058a9">
        <g
           id="id-1609f29a-94ca-4fe4-98a7-9e8a0755ba8e">
          <g
             id="id-591ae65b-07ab-4c52-a528-9470135a6875" />
          <g
             id="id-b228a5ed-e5c4-4620-a39b-d0ad2bbcff18">
            <path
               d="M 6.75,-1.609375 H 6.5 c -0.046875,0.25 -0.09375,0.484375 -0.1875,0.71875 -0.046875,0.15625 -0.078125,0.25 -0.65625,0.25 H 4.859375 C 5,-1.203125 5.296875,-1.6875 5.75,-2.34375 c 0.46875,-0.703125 0.875,-1.390625 0.875,-2.1875 0,-1.375 -1.34375,-2.5 -3.03125,-2.5 -1.703125,0 -3.03125,1.140625 -3.03125,2.5 0,0.796875 0.40625,1.484375 0.875,2.1875 0.4375,0.65625 0.75,1.140625 0.890625,1.703125 H 1.53125 C 0.953125,-0.640625 0.921875,-0.734375 0.875,-0.875 0.78125,-1.109375 0.734375,-1.359375 0.6875,-1.609375 h -0.25 L 0.765625,0 h 1.59375 c 0.21875,0 0.25,0 0.25,-0.203125 0,-0.703125 -0.3125,-1.578125 -0.53125,-2.21875 -0.21875,-0.578125 -0.5,-1.359375 -0.5,-2.109375 0,-1.59375 1.109375,-2.28125 2.015625,-2.28125 0.953125,0 2.015625,0.71875 2.015625,2.28125 0,0.75 -0.28125,1.5 -0.5625,2.3125 -0.15625,0.421875 -0.46875,1.328125 -0.46875,2.015625 C 4.578125,0 4.609375,0 4.828125,0 h 1.59375 z m 0,0"
               id="id-d2ce44fb-19f5-4d6c-9f94-aeb6be8aac5a" />
          </g>
          <g
             id="id-761b4cde-7da7-4b63-baeb-a4660692b4f9" />
          <g
             id="id-4d60acff-785e-4f69-aef1-573b020268a2">
            <path
               d="m 3.21875,-1.578125 h 2.140625 c 0.09375,0 0.25,0 0.25,-0.15625 0,-0.1875 -0.15625,-0.1875 -0.25,-0.1875 H 3.21875 V -4.0625 c 0,-0.078125 0,-0.25 -0.15625,-0.25 -0.171875,0 -0.171875,0.15625 -0.171875,0.25 v 2.140625 H 0.75 c -0.09375,0 -0.265625,0 -0.265625,0.171875 0,0.171875 0.15625,0.171875 0.265625,0.171875 H 2.890625 V 0.5625 c 0,0.09375 0,0.265625 0.15625,0.265625 0.171875,0 0.171875,-0.171875 0.171875,-0.265625 z m 0,0"
               id="id-60c2deaa-da40-47e5-a4cd-e0ef35a85365" />
          </g>
          <g
             id="id-9301c28e-b28f-4bcf-8d80-be0de5338b56" />
          <g
             id="id-c4b08a74-2cba-4c9a-a062-b2ea08450931">
            <path
               d="m 2.265625,-4.359375 c 0,-0.109375 -0.09375,-0.265625 -0.28125,-0.265625 -0.1875,0 -0.390625,0.1875 -0.390625,0.390625 0,0.109375 0.078125,0.265625 0.28125,0.265625 0.1875,0 0.390625,-0.203125 0.390625,-0.390625 z M 0.84375,-0.8125 c -0.03125,0.09375 -0.0625,0.171875 -0.0625,0.296875 0,0.328125 0.265625,0.578125 0.65625,0.578125 0.6875,0 1,-0.953125 1,-1.0625 0,-0.09375 -0.09375,-0.09375 -0.109375,-0.09375 -0.09375,0 -0.109375,0.046875 -0.140625,0.125 -0.15625,0.5625 -0.453125,0.84375 -0.734375,0.84375 -0.140625,0 -0.171875,-0.09375 -0.171875,-0.25 0,-0.15625 0.046875,-0.28125 0.109375,-0.4375 C 1.46875,-1 1.546875,-1.1875 1.609375,-1.375 1.671875,-1.546875 1.9375,-2.171875 1.953125,-2.265625 1.984375,-2.328125 2,-2.40625 2,-2.484375 2,-2.8125 1.71875,-3.078125 1.34375,-3.078125 0.640625,-3.078125 0.328125,-2.125 0.328125,-2 c 0,0.078125 0.09375,0.078125 0.125,0.078125 0.09375,0 0.09375,-0.03125 0.125,-0.109375 C 0.75,-2.625 1.0625,-2.875 1.3125,-2.875 c 0.109375,0 0.171875,0.046875 0.171875,0.234375 0,0.171875 -0.03125,0.265625 -0.203125,0.703125 z m 0,0"
               id="id-4d9dbe84-2ff9-492c-9591-8a3fd5c6a335" />
          </g>
        </g>
      </defs>
      <g
         fill="#000000"
         fill-opacity="1"
         id="id-f9bcadf2-0bd5-4789-a419-f494ca6216f2"
         transform="translate(-149.15,-126.191)">
        <g
           transform="translate(148.712,134.765)"
           id="g73576">
          <path
             d="M 6.75,-1.609375 H 6.5 c -0.046875,0.25 -0.09375,0.484375 -0.1875,0.71875 -0.046875,0.15625 -0.078125,0.25 -0.65625,0.25 H 4.859375 C 5,-1.203125 5.296875,-1.6875 5.75,-2.34375 c 0.46875,-0.703125 0.875,-1.390625 0.875,-2.1875 0,-1.375 -1.34375,-2.5 -3.03125,-2.5 -1.703125,0 -3.03125,1.140625 -3.03125,2.5 0,0.796875 0.40625,1.484375 0.875,2.1875 0.4375,0.65625 0.75,1.140625 0.890625,1.703125 H 1.53125 C 0.953125,-0.640625 0.921875,-0.734375 0.875,-0.875 0.78125,-1.109375 0.734375,-1.359375 0.6875,-1.609375 h -0.25 L 0.765625,0 h 1.59375 c 0.21875,0 0.25,0 0.25,-0.203125 0,-0.703125 -0.3125,-1.578125 -0.53125,-2.21875 -0.21875,-0.578125 -0.5,-1.359375 -0.5,-2.109375 0,-1.59375 1.109375,-2.28125 2.015625,-2.28125 0.953125,0 2.015625,0.71875 2.015625,2.28125 0,0.75 -0.28125,1.5 -0.5625,2.3125 -0.15625,0.421875 -0.46875,1.328125 -0.46875,2.015625 C 4.578125,0 4.609375,0 4.828125,0 h 1.59375 z m 0,0"
             id="id-6d66425e-5f3b-4b1a-a812-a2da544dca73" />
        </g>
      </g>
      <g
         fill="#000000"
         fill-opacity="1"
         id="id-8bf3df28-e702-4535-90fd-250dbb64dc44"
         transform="translate(-149.15,-126.191)">
        <g
           transform="translate(155.908,130.503)"
           id="g73580">
          <path
             d="m 3.21875,-1.578125 h 2.140625 c 0.09375,0 0.25,0 0.25,-0.15625 0,-0.1875 -0.15625,-0.1875 -0.25,-0.1875 H 3.21875 V -4.0625 c 0,-0.078125 0,-0.25 -0.15625,-0.25 -0.171875,0 -0.171875,0.15625 -0.171875,0.25 v 2.140625 H 0.75 c -0.09375,0 -0.265625,0 -0.265625,0.171875 0,0.171875 0.15625,0.171875 0.265625,0.171875 H 2.890625 V 0.5625 c 0,0.09375 0,0.265625 0.15625,0.265625 0.171875,0 0.171875,-0.171875 0.171875,-0.265625 z m 0,0"
             id="id-cdda282e-c1d5-40ee-bef4-2eed648384a7" />
        </g>
      </g>
      <g
         fill="#000000"
         fill-opacity="1"
         id="id-5f8796a3-2474-41d9-a7e8-c9b3b2502ee3"
         transform="translate(-149.15,-126.191)">
        <g
           transform="translate(155.908,137.542)"
           id="g73584">
          <path
             d="m 2.265625,-4.359375 c 0,-0.109375 -0.09375,-0.265625 -0.28125,-0.265625 -0.1875,0 -0.390625,0.1875 -0.390625,0.390625 0,0.109375 0.078125,0.265625 0.28125,0.265625 0.1875,0 0.390625,-0.203125 0.390625,-0.390625 z M 0.84375,-0.8125 c -0.03125,0.09375 -0.0625,0.171875 -0.0625,0.296875 0,0.328125 0.265625,0.578125 0.65625,0.578125 0.6875,0 1,-0.953125 1,-1.0625 0,-0.09375 -0.09375,-0.09375 -0.109375,-0.09375 -0.09375,0 -0.109375,0.046875 -0.140625,0.125 -0.15625,0.5625 -0.453125,0.84375 -0.734375,0.84375 -0.140625,0 -0.171875,-0.09375 -0.171875,-0.25 0,-0.15625 0.046875,-0.28125 0.109375,-0.4375 C 1.46875,-1 1.546875,-1.1875 1.609375,-1.375 1.671875,-1.546875 1.9375,-2.171875 1.953125,-2.265625 1.984375,-2.328125 2,-2.40625 2,-2.484375 2,-2.8125 1.71875,-3.078125 1.34375,-3.078125 0.640625,-3.078125 0.328125,-2.125 0.328125,-2 c 0,0.078125 0.09375,0.078125 0.125,0.078125 0.09375,0 0.09375,-0.03125 0.125,-0.109375 C 0.75,-2.625 1.0625,-2.875 1.3125,-2.875 c 0.109375,0 0.171875,0.046875 0.171875,0.234375 0,0.171875 -0.03125,0.265625 -0.203125,0.703125 z m 0,0"
             id="id-38e7fff8-ce5f-44fd-a7ba-0616c62b2874" />
        </g>
      </g>
    </g>
    <g
       transform="matrix(0.352778,0,0,0.352778,27.889352,32.812103)"
       ns2:version="1.8.2"
       ns2:texconverter="pdflatex"
       ns2:pdfconverter="inkscape"
       ns2:text="$\\Omega_i^-$"
       ns2:preamble="/home/kyrem1/.config/inkscape/extensions/textext/default_packages.tex"
       ns2:scale="1.0"
       ns2:alignment="middle center"
       ns2:stroke-to-path="0"
       ns2:inkscapeversion="1.2.2"
       ns2:jacobian_sqrt="0.352778"
       id="g73848">
      <defs
         id="id-2ec437f4-a766-40eb-bd9b-26b16683e4f5">
        <g
           id="id-97f9a934-07a9-4d85-8d0d-d8471cf2a81b">
          <g
             id="id-f7a7a579-b725-4ba1-901a-3d6ddf7ab7e9" />
          <g
             id="id-489cfabc-a361-4b09-851e-55a746c7e4b1">
            <path
               d="M 6.75,-1.609375 H 6.5 c -0.046875,0.25 -0.09375,0.484375 -0.1875,0.71875 -0.046875,0.15625 -0.078125,0.25 -0.65625,0.25 H 4.859375 C 5,-1.203125 5.296875,-1.6875 5.75,-2.34375 c 0.46875,-0.703125 0.875,-1.390625 0.875,-2.1875 0,-1.375 -1.34375,-2.5 -3.03125,-2.5 -1.703125,0 -3.03125,1.140625 -3.03125,2.5 0,0.796875 0.40625,1.484375 0.875,2.1875 0.4375,0.65625 0.75,1.140625 0.890625,1.703125 H 1.53125 C 0.953125,-0.640625 0.921875,-0.734375 0.875,-0.875 0.78125,-1.109375 0.734375,-1.359375 0.6875,-1.609375 h -0.25 L 0.765625,0 h 1.59375 c 0.21875,0 0.25,0 0.25,-0.203125 0,-0.703125 -0.3125,-1.578125 -0.53125,-2.21875 -0.21875,-0.578125 -0.5,-1.359375 -0.5,-2.109375 0,-1.59375 1.109375,-2.28125 2.015625,-2.28125 0.953125,0 2.015625,0.71875 2.015625,2.28125 0,0.75 -0.28125,1.5 -0.5625,2.3125 -0.15625,0.421875 -0.46875,1.328125 -0.46875,2.015625 C 4.578125,0 4.609375,0 4.828125,0 h 1.59375 z m 0,0"
               id="id-8fbc97b7-949c-4c54-ac1a-2bfca13c8250" />
          </g>
          <g
             id="id-4d48ea5e-cb8a-4e40-bce5-5261d275dd1e" />
          <g
             id="id-0098e606-11ab-4b00-afb1-4ef553383da6">
            <path
               d="m 5.1875,-1.578125 c 0.109375,0 0.28125,0 0.28125,-0.15625 0,-0.1875 -0.171875,-0.1875 -0.28125,-0.1875 H 1.03125 c -0.109375,0 -0.28125,0 -0.28125,0.171875 0,0.171875 0.15625,0.171875 0.28125,0.171875 z m 0,0"
               id="id-f703c821-afcd-4c58-b65c-d81bd71fcfe4" />
          </g>
          <g
             id="id-2259cc8f-b4cc-4f44-b18f-88c7ba7a4b0d" />
          <g
             id="id-f4e62cbb-beb1-4bc6-84e2-dba00b72f6cf">
            <path
               d="m 2.265625,-4.359375 c 0,-0.109375 -0.09375,-0.265625 -0.28125,-0.265625 -0.1875,0 -0.390625,0.1875 -0.390625,0.390625 0,0.109375 0.078125,0.265625 0.28125,0.265625 0.1875,0 0.390625,-0.203125 0.390625,-0.390625 z M 0.84375,-0.8125 c -0.03125,0.09375 -0.0625,0.171875 -0.0625,0.296875 0,0.328125 0.265625,0.578125 0.65625,0.578125 0.6875,0 1,-0.953125 1,-1.0625 0,-0.09375 -0.09375,-0.09375 -0.109375,-0.09375 -0.09375,0 -0.109375,0.046875 -0.140625,0.125 -0.15625,0.5625 -0.453125,0.84375 -0.734375,0.84375 -0.140625,0 -0.171875,-0.09375 -0.171875,-0.25 0,-0.15625 0.046875,-0.28125 0.109375,-0.4375 C 1.46875,-1 1.546875,-1.1875 1.609375,-1.375 1.671875,-1.546875 1.9375,-2.171875 1.953125,-2.265625 1.984375,-2.328125 2,-2.40625 2,-2.484375 2,-2.8125 1.71875,-3.078125 1.34375,-3.078125 0.640625,-3.078125 0.328125,-2.125 0.328125,-2 c 0,0.078125 0.09375,0.078125 0.125,0.078125 0.09375,0 0.09375,-0.03125 0.125,-0.109375 C 0.75,-2.625 1.0625,-2.875 1.3125,-2.875 c 0.109375,0 0.171875,0.046875 0.171875,0.234375 0,0.171875 -0.03125,0.265625 -0.203125,0.703125 z m 0,0"
               id="id-c42dd2c9-eb35-4624-92fe-1257d539d80e" />
          </g>
        </g>
      </defs>
      <g
         fill="#000000"
         fill-opacity="1"
         id="id-ea31619c-0b32-4b1f-a10d-7c86dc155053"
         transform="translate(-149.15,-127.734)">
        <g
           transform="translate(148.712,134.765)"
           id="g73837">
          <path
             d="M 6.75,-1.609375 H 6.5 c -0.046875,0.25 -0.09375,0.484375 -0.1875,0.71875 -0.046875,0.15625 -0.078125,0.25 -0.65625,0.25 H 4.859375 C 5,-1.203125 5.296875,-1.6875 5.75,-2.34375 c 0.46875,-0.703125 0.875,-1.390625 0.875,-2.1875 0,-1.375 -1.34375,-2.5 -3.03125,-2.5 -1.703125,0 -3.03125,1.140625 -3.03125,2.5 0,0.796875 0.40625,1.484375 0.875,2.1875 0.4375,0.65625 0.75,1.140625 0.890625,1.703125 H 1.53125 C 0.953125,-0.640625 0.921875,-0.734375 0.875,-0.875 0.78125,-1.109375 0.734375,-1.359375 0.6875,-1.609375 h -0.25 L 0.765625,0 h 1.59375 c 0.21875,0 0.25,0 0.25,-0.203125 0,-0.703125 -0.3125,-1.578125 -0.53125,-2.21875 -0.21875,-0.578125 -0.5,-1.359375 -0.5,-2.109375 0,-1.59375 1.109375,-2.28125 2.015625,-2.28125 0.953125,0 2.015625,0.71875 2.015625,2.28125 0,0.75 -0.28125,1.5 -0.5625,2.3125 -0.15625,0.421875 -0.46875,1.328125 -0.46875,2.015625 C 4.578125,0 4.609375,0 4.828125,0 h 1.59375 z m 0,0"
             id="id-33ef04f3-1aff-4485-8957-7a3b33a16881" />
        </g>
      </g>
      <g
         fill="#000000"
         fill-opacity="1"
         id="id-97ab3b3c-e31b-437c-9e0b-97e0a27cc560"
         transform="translate(-149.15,-127.734)">
        <g
           transform="translate(155.908,130.503)"
           id="g73841">
          <path
             d="m 5.1875,-1.578125 c 0.109375,0 0.28125,0 0.28125,-0.15625 0,-0.1875 -0.171875,-0.1875 -0.28125,-0.1875 H 1.03125 c -0.109375,0 -0.28125,0 -0.28125,0.171875 0,0.171875 0.15625,0.171875 0.28125,0.171875 z m 0,0"
             id="id-1bff77d0-5925-427c-8949-f2675fc76ab8" />
        </g>
      </g>
      <g
         fill="#000000"
         fill-opacity="1"
         id="id-3239b06e-9ed8-44c2-a75c-a695392d75b9"
         transform="translate(-149.15,-127.734)">
        <g
           transform="translate(155.908,137.542)"
           id="g73845">
          <path
             d="m 2.265625,-4.359375 c 0,-0.109375 -0.09375,-0.265625 -0.28125,-0.265625 -0.1875,0 -0.390625,0.1875 -0.390625,0.390625 0,0.109375 0.078125,0.265625 0.28125,0.265625 0.1875,0 0.390625,-0.203125 0.390625,-0.390625 z M 0.84375,-0.8125 c -0.03125,0.09375 -0.0625,0.171875 -0.0625,0.296875 0,0.328125 0.265625,0.578125 0.65625,0.578125 0.6875,0 1,-0.953125 1,-1.0625 0,-0.09375 -0.09375,-0.09375 -0.109375,-0.09375 -0.09375,0 -0.109375,0.046875 -0.140625,0.125 -0.15625,0.5625 -0.453125,0.84375 -0.734375,0.84375 -0.140625,0 -0.171875,-0.09375 -0.171875,-0.25 0,-0.15625 0.046875,-0.28125 0.109375,-0.4375 C 1.46875,-1 1.546875,-1.1875 1.609375,-1.375 1.671875,-1.546875 1.9375,-2.171875 1.953125,-2.265625 1.984375,-2.328125 2,-2.40625 2,-2.484375 2,-2.8125 1.71875,-3.078125 1.34375,-3.078125 0.640625,-3.078125 0.328125,-2.125 0.328125,-2 c 0,0.078125 0.09375,0.078125 0.125,0.078125 0.09375,0 0.09375,-0.03125 0.125,-0.109375 C 0.75,-2.625 1.0625,-2.875 1.3125,-2.875 c 0.109375,0 0.171875,0.046875 0.171875,0.234375 0,0.171875 -0.03125,0.265625 -0.203125,0.703125 z m 0,0"
             id="id-3c7d48c2-a72c-4c17-905f-36a8321e0d03" />
        </g>
      </g>
    </g>
    <path
       style="opacity:0.117097;fill:url(#Wavy);fill-rule:nonzero;stroke:#d56a11;stroke-width:0.426417;stroke-dashoffset:1.76315;fill-opacity:1.0"
       d="m 171.79783,283.27361 c -1.00485,-0.54752 -2.8887,-1.73285 -4.18634,-2.63405 -4.382,-3.04331 -6.73154,-3.16204 -15.41138,-0.77883 -5.10174,1.40078 -9.44859,0.40502 -12.40252,-2.84112 -1.8133,-1.9927 -4.99672,-4.05702 -8.04662,-5.21794 -4.80345,-1.82839 -8.04413,-2.17577 -24.0163,-2.57436 -8.51701,-0.21255 -16.360226,-0.60585 -17.42937,-0.87401 -1.06914,-0.26815 -7.340758,-3.09243 -13.936929,-6.27616 -6.596167,-3.18373 -14.634585,-6.94315 -17.863152,-8.35427 -6.800892,-2.97248 -12.552176,-6.62837 -14.862088,-9.44731 -2.073542,-2.53048 -4.159479,-6.94105 -4.507033,-9.5298 -0.465221,-3.46519 -4.329293,-10.43142 -11.300746,-20.37325 -7.352614,-10.48538 -10.689503,-16.63353 -11.698827,-21.55484 -0.576758,-2.81219 -0.575675,-4.07868 0.0093,-10.83984 1.232352,-14.24427 2.624273,-20.80587 5.777089,-27.23355 2.603964,-5.30872 5.596717,-8.44233 10.024948,-10.49679 3.633635,-1.6858 11.548916,-7.81477 14.723764,-11.40091 2.808877,-3.17277 4.209256,-6.01705 4.209256,-8.54936 0,-2.76459 -1.013209,-4.71366 -3.557913,-6.8442 -2.388402,-1.99969 -3.963778,-4.81903 -3.963256,-7.09277 0.0011,-4.70771 5.825587,-11.51211 15.136037,-17.682481 9.370416,-6.210112 15.342417,-8.633346 23.930578,-9.710211 4.64182,-0.582034 24.819072,-0.580674 32.829892,0.0022 12.67155,0.922015 25.22785,2.795826 34.51049,5.150098 4.0214,1.019911 4.9282,1.095573 9.95495,0.830632 7.16689,-0.377739 15.94373,-1.287125 28.29309,-2.931505 7.92288,-1.05497 11.91626,-1.851895 19.69195,-3.92975 5.36451,-1.433529 12.2424,-3.131289 15.28419,-3.7728 3.04179,-0.641511 7.66605,-1.850608 10.27613,-2.686882 9.28815,-2.975934 11.5682,-1.934685 15.07827,6.885904 0.62944,1.581731 1.4486,3.983621 1.82036,5.337534 1.21854,4.43781 4.5789,7.930479 7.63353,7.934078 2.05553,0.0024 3.97144,-2.10819 4.87993,-5.375843 0.81739,-2.940006 2.91219,-5.241116 4.7712,-5.241116 0.58812,0 3.57718,0.796354 6.64236,1.769675 4.01781,1.275819 6.89448,1.887776 10.30819,2.192877 5.81312,0.519545 8.30732,1.343412 10.85425,3.585306 3.91264,3.444046 6.34256,8.543124 8.9768,18.837384 1.9115,7.46987 3.0277,9.37216 6.56844,11.19428 1.85062,0.95236 2.91547,1.15124 6.89317,1.28739 5.98891,0.20498 13.73216,-1.15267 16.22587,-2.84495 4.41487,-2.99601 7.94932,2.10239 12.31858,17.76937 1.35198,4.84783 3.17279,11.20343 4.04624,14.12355 3.98377,13.31856 5.44558,20.83058 6.32816,32.5195 0.2848,3.77182 0.79861,8.42286 1.14182,10.33565 1.88445,10.50263 -0.60287,14.97327 -8.8885,15.97591 -2.08475,0.25228 -3.27204,0.73444 -5.53052,2.24595 -1.58173,1.05859 -3.37362,2.66848 -3.98198,3.57753 -1.07485,1.6061 -1.10618,1.87248 -1.10872,9.42504 l -0.003,7.77222 -2.37644,7.07908 c -2.6838,7.99463 -4.69877,12.32168 -6.64338,14.26629 -2.40534,2.40533 -4.32634,2.12793 -9.55752,-1.38014 -5.31339,-3.5632 -9.25001,-5.30599 -12.44477,-5.50941 -1.66578,-0.10607 -3.37355,0.0457 -4.15459,0.36922 -1.6646,0.68949 -5.42172,4.71765 -7.73788,8.29607 -2.00649,3.10001 -4.77236,4.90299 -12.0712,7.86884 -5.07105,2.0606 -7.41013,4.04668 -9.54042,8.10062 -1.70981,3.25379 -3.98635,5.61863 -5.86198,6.08939 -2.21812,0.55671 -5.53296,-0.26153 -11.96427,-2.95328 -3.93841,-1.64838 -7.92784,-2.98724 -10.0843,-3.38431 -1.96239,-0.36134 -6.15626,-1.32115 -9.31972,-2.13291 -13.38662,-3.43508 -18.1551,-3.30166 -26.10409,0.73038 -1.94675,0.98746 -4.83368,2.19707 -6.41541,2.68804 -1.58173,0.49095 -6.16101,2.34605 -10.17617,4.12245 -9.38553,4.15237 -12.45234,5.08198 -16.76562,5.08198 -2.68879,0 -3.78101,-0.20805 -5.22619,-0.9955 z m 25.59034,-18.69255 c 35.03824,-1.12555 73.99258,-11.84623 98.16321,-27.01562 7.6235,-4.78447 12.72379,-8.83826 18.83234,-14.96822 13.18277,-13.22896 18.62424,-26.38812 17.36751,-41.99998 -2.76852,-34.39206 -47.43794,-64.18362 -109.86647,-73.2737 -13.17886,-1.91894 -20.95965,-2.41831 -38.05003,-2.44202 -16.09634,-0.0223 -22.07477,0.29114 -34.06805,1.78634 -47.10721,5.87288 -86.124402,23.81275 -104.227346,47.92311 -17.762353,23.65675 -13.520813,50.9772 11.240534,72.40208 22.469846,19.44216 57.824792,32.47674 99.623442,36.72895 7.89205,0.80287 23.53918,1.45629 29.64363,1.23792 2.19009,-0.0784 7.29364,-0.24883 11.34123,-0.37886 z"
       id="path73901"
       transform="scale(0.26458333)" />
  </g>
</svg>
