<?xml version="1.0" encoding="UTF-8" standalone="no"?>
<!-- Created with Inkscape (http://www.inkscape.org/) -->

<svg
   width="210mm"
   height="297mm"
   viewBox="0 0 210 297"
   version="1.1"
   id="svg5"
   inkscape:version="1.2.2 (b0a8486541, 2022-12-01)"
   sodipodi:docname="indicator.svg"
   xmlns:inkscape="http://www.inkscape.org/namespaces/inkscape"
   xmlns:sodipodi="http://sodipodi.sourceforge.net/DTD/sodipodi-0.dtd"
   xmlns="http://www.w3.org/2000/svg"
   xmlns:svg="http://www.w3.org/2000/svg"
   xmlns:ns1="http://www.iki.fi/pav/software/textext/">
  <sodipodi:namedview
     id="namedview7"
     pagecolor="#ffffff"
     bordercolor="#000000"
     borderopacity="0.25"
     inkscape:showpageshadow="2"
     inkscape:pageopacity="0.0"
     inkscape:pagecheckerboard="0"
     inkscape:deskcolor="#d1d1d1"
     inkscape:document-units="mm"
     showgrid="false"
     inkscape:zoom="2.122234"
     inkscape:cx="248.32323"
     inkscape:cy="404.52655"
     inkscape:window-width="1900"
     inkscape:window-height="1044"
     inkscape:window-x="10"
     inkscape:window-y="26"
     inkscape:window-maximized="1"
     inkscape:current-layer="layer1" />
  <defs
     id="defs2">
    <inkscape:path-effect
       effect="simplify"
       id="path-effect437"
       is_visible="true"
       lpeversion="1"
       steps="1"
       threshold="0.00961538"
       smooth_angles="360"
       helper_size="0"
       simplify_individual_paths="false"
       simplify_just_coalesce="false" />
    <inkscape:path-effect
       effect="simplify"
       id="path-effect437-3"
       is_visible="true"
       lpeversion="1"
       steps="1"
       threshold="0.00961538"
       smooth_angles="360"
       helper_size="0"
       simplify_individual_paths="false"
       simplify_just_coalesce="false" />
  </defs>
  <g
     inkscape:label="Layer 1"
     inkscape:groupmode="layer"
     id="layer1">
    <path
       style="fill:none;stroke:#000000;stroke-width:0.264583px;stroke-linecap:butt;stroke-linejoin:miter;stroke-opacity:1"
       d="M 53.798919,73.392315 53.410847,113.88201 16.130816,124.5334"
       id="path359" />
    <path
       style="fill:none;stroke:#000000;stroke-width:0.264583px;stroke-linecap:butt;stroke-linejoin:miter;stroke-opacity:1"
       d="m 53.415699,113.81984 54.186101,11.3114"
       id="path361" />
    <path
       style="fill:none;stroke:#000000;stroke-width:0.264583px;stroke-linecap:butt;stroke-linejoin:miter;stroke-opacity:1"
       d="m 30.825009,123.0183 c 4.836367,-2.9465 10.490346,-5.09408 16.260238,-3.98843 3.757195,0.71997 7.450498,1.7237 11.351198,1.60696 4.70581,-0.14084 9.371712,-0.53538 14.130457,0.14897 4.177014,0.60069 9.646076,0.59574 11.795709,4.67706 1.144009,2.17203 5.677977,4.97044 3.929888,6.26137 -2.543758,1.87851 -5.374949,-1.30693 -8.105375,-0.24813 -2.739952,1.06249 -5.609873,2.26433 -8.639578,1.05417 -3.093335,-1.23558 -6.183188,-2.65877 -9.720246,-2.32895 -4.510989,0.42063 -8.6222,2.69418 -13.085855,3.27272 -2.74467,0.35574 -5.419739,0.50217 -8.258364,0.66551 -3.642728,0.20961 -7.13409,-1.27253 -10.604897,-2.18122 -3.555127,-0.93077 -4.680134,-6.87315 -0.598493,-7.49592 0.89299,-0.13625 1.002832,-0.94256 1.545318,-1.4441"
       id="path435"
       inkscape:path-effect="#path-effect437"
       inkscape:original-d="m 30.825009,123.0183 c 7.566514,-4.37871 11.838942,-5.40021 20.28196,-3.09462 5.594779,1.52781 11.141858,0.19342 16.805066,0.19342 1.769065,0 3.56561,0.52386 5.311944,0.77366 5.031772,0.71976 9.11189,1.02265 11.97601,5.80239 0.551334,0.92008 1.000712,1.89562 1.545302,2.80448 0.444963,0.74259 2.621094,1.78229 1.158967,2.51437 -1.850353,0.92647 -3.75879,-0.36938 -5.601692,-0.67695 -2.891448,-0.48256 -5.445919,2.24651 -8.305948,1.83743 -3.91827,-0.56045 -6.824631,-3.43578 -10.913626,-3.09461 -3.326503,0.27756 -6.85115,0.97489 -10.044403,1.93413 -1.734786,0.52112 -3.498916,1.44229 -5.311944,1.64401 -1.284182,0.14288 -2.576656,-0.25775 -3.863237,-0.0967 -1.135846,0.14217 -2.239899,0.46605 -3.380327,0.58024 -2.996925,0.30007 -6.040189,-0.83507 -8.885434,-1.5473 -3.03322,-0.75929 -6.594453,-3.57906 -4.249557,-6.86617 0.815721,-1.14348 2.296348,-1.16868 2.897433,-1.83741 0.232998,-0.25922 0.24369,-0.77696 0.579486,-0.87036"
       sodipodi:nodetypes="cssssssssssssssssc" />
    <path
       style="fill:#e6e6e6;stroke:#000000;stroke-width:0.209844px;stroke-linecap:butt;stroke-linejoin:miter;stroke-opacity:1"
       d="m 29.962216,101.03986 c 5.592396,-2.196903 11.719498,-3.543368 17.667097,-2.345282 5.188506,1.045174 10.498046,1.050819 15.747896,0.614728 4.647679,-0.38607 9.262567,0.392054 13.86663,0.891984 3.211416,0.34871 5.430022,2.7918 8.294037,4.47561 1.504693,0.88464 2.961406,2.41851 0.156052,2.22162 -2.621374,-0.18398 -5.255407,-1.20599 -7.867244,-0.20501 -2.954049,1.13213 -6.165795,0.84202 -9.080145,-0.18853 -3.417601,-1.2085 -7.038999,-0.94326 -10.618257,-0.6918 -3.812168,0.26782 -7.467037,2.29159 -11.2495,1.91221 -2.997036,-0.3006 -5.967299,0.62946 -8.940501,0.32251 -3.530579,-0.36449 -7.239769,-0.54996 -10.501483,-2.02144 -3.793361,-1.71133 0.0414,-4.20606 2.196836,-4.75221 0,0 0.128963,-0.1471 0.128963,-0.1471 0,0 0.199619,-0.0873 0.199619,-0.0873"
       id="path435-6"
       inkscape:path-effect="#path-effect437-3"
       inkscape:original-d="m 29.962216,101.03986 c 7.573198,-2.751913 11.8494,-3.3939 20.299876,-1.944895 5.599721,0.960195 11.1517,0.121559 16.819911,0.121559 1.770628,0 3.56876,0.329233 5.316636,0.486226 5.036217,0.45235 9.119939,0.64271 11.986589,3.64666 0.551821,0.57824 1.001596,1.19135 1.546667,1.76254 0.445356,0.4667 2.623409,1.12013 1.159991,1.58022 -1.851988,0.58226 -3.76211,-0.23215 -5.60664,-0.42545 -2.894002,-0.30327 -5.45073,1.41188 -8.313285,1.15478 -3.921731,-0.35223 -6.83066,-2.1593 -10.923267,-1.94488 -3.329441,0.17444 -6.857202,0.61269 -10.053275,1.21555 -1.736319,0.32751 -3.502007,0.90644 -5.316637,1.03322 -1.285316,0.0898 -2.578932,-0.16199 -3.866649,-0.0608 -1.13685,0.0893 -2.241878,0.2929 -3.383313,0.36466 -2.999573,0.18859 -6.045525,-0.52482 -8.893283,-0.97244 -3.0359,-0.47719 -6.600278,-2.24935 -4.253311,-4.31521 0.816442,-0.71865 2.298376,-0.73449 2.899992,-1.15477 0.233204,-0.16291 0.243906,-0.4883 0.579998,-0.547"
       sodipodi:nodetypes="cssssssssssssssssc" />
    <g
       transform="matrix(0.352778,0,0,0.352778,50.042771,125.00243)"
       ns1:version="1.8.2"
       ns1:texconverter="pdflatex"
       ns1:pdfconverter="inkscape"
       ns1:text="$E$"
       ns1:preamble="/home/kyrem1/.config/inkscape/extensions/textext/default_packages.tex"
       ns1:scale="1.0"
       ns1:alignment="middle center"
       ns1:stroke-to-path="0"
       ns1:inkscapeversion="1.2.2"
       ns1:jacobian_sqrt="0.352778"
       id="g278">
      <defs
         id="id-15250308-bf3b-4c94-8e64-0ba3015d67f6">
        <g
           id="id-a77eec0f-9357-4d15-a1e7-de62351407bc">
          <g
             id="id-4b3fcb24-67bb-4041-8ec1-4255fabd79a9" />
          <g
             id="id-f6969374-599f-40a9-acea-e46aa2aefbf0">
            <path
               d="M 7.0625,-2.328125 C 7.078125,-2.375 7.109375,-2.4375 7.109375,-2.46875 c 0,0 0,-0.109375 -0.125,-0.109375 -0.09375,0 -0.109375,0.0625 -0.125,0.125 C 6.203125,-0.984375 5.84375,-0.3125 4.140625,-0.3125 H 2.6875 c -0.140625,0 -0.171875,0 -0.21875,0 -0.109375,-0.015625 -0.140625,-0.03125 -0.140625,-0.109375 0,-0.03125 0,-0.046875 0.046875,-0.21875 L 3.0625,-3.375 h 0.984375 c 0.84375,0 0.84375,0.21875 0.84375,0.46875 0,0.0625 0,0.1875 -0.0625,0.484375 C 4.8125,-2.375 4.796875,-2.34375 4.796875,-2.3125 c 0,0.046875 0.03125,0.109375 0.125,0.109375 C 5,-2.203125 5.03125,-2.25 5.078125,-2.40625 l 0.5625,-2.328125 c 0,-0.0625 -0.046875,-0.109375 -0.125,-0.109375 -0.078125,0 -0.109375,0.0625 -0.125,0.171875 -0.21875,0.765625 -0.390625,1 -1.3125,1 h -0.9375 l 0.59375,-2.40625 C 3.828125,-6.4375 3.84375,-6.46875 4.28125,-6.46875 H 5.6875 c 1.203125,0 1.515625,0.28125 1.515625,1.109375 0,0.234375 0,0.25 -0.046875,0.53125 0,0.046875 -0.015625,0.125 -0.015625,0.171875 0,0.046875 0.03125,0.125 0.125,0.125 0.109375,0 0.125,-0.0625 0.140625,-0.25 L 7.609375,-6.515625 C 7.640625,-6.78125 7.59375,-6.78125 7.34375,-6.78125 H 2.296875 c -0.1875,0 -0.296875,0 -0.296875,0.203125 0,0.109375 0.09375,0.109375 0.28125,0.109375 0.375,0 0.65625,0 0.65625,0.171875 0,0.046875 0,0.0625 -0.0625,0.25 L 1.5625,-0.78125 c -0.09375,0.390625 -0.109375,0.46875 -0.90625,0.46875 -0.171875,0 -0.28125,0 -0.28125,0.1875 C 0.375,0 0.46875,0 0.65625,0 h 5.171875 c 0.234375,0 0.25,-0.015625 0.3125,-0.171875 z m 0,0"
               id="id-5b9e6c07-6b64-4e21-a287-2f66a6e0a349" />
          </g>
        </g>
      </defs>
      <g
         fill="#000000"
         fill-opacity="1"
         id="id-427d58b1-0015-4cb2-8a34-9b4f35551481"
         transform="translate(-149.087,-127.984)">
        <g
           transform="translate(148.712,134.765)"
           id="g275">
          <path
             d="M 7.0625,-2.328125 C 7.078125,-2.375 7.109375,-2.4375 7.109375,-2.46875 c 0,0 0,-0.109375 -0.125,-0.109375 -0.09375,0 -0.109375,0.0625 -0.125,0.125 C 6.203125,-0.984375 5.84375,-0.3125 4.140625,-0.3125 H 2.6875 c -0.140625,0 -0.171875,0 -0.21875,0 -0.109375,-0.015625 -0.140625,-0.03125 -0.140625,-0.109375 0,-0.03125 0,-0.046875 0.046875,-0.21875 L 3.0625,-3.375 h 0.984375 c 0.84375,0 0.84375,0.21875 0.84375,0.46875 0,0.0625 0,0.1875 -0.0625,0.484375 C 4.8125,-2.375 4.796875,-2.34375 4.796875,-2.3125 c 0,0.046875 0.03125,0.109375 0.125,0.109375 C 5,-2.203125 5.03125,-2.25 5.078125,-2.40625 l 0.5625,-2.328125 c 0,-0.0625 -0.046875,-0.109375 -0.125,-0.109375 -0.078125,0 -0.109375,0.0625 -0.125,0.171875 -0.21875,0.765625 -0.390625,1 -1.3125,1 h -0.9375 l 0.59375,-2.40625 C 3.828125,-6.4375 3.84375,-6.46875 4.28125,-6.46875 H 5.6875 c 1.203125,0 1.515625,0.28125 1.515625,1.109375 0,0.234375 0,0.25 -0.046875,0.53125 0,0.046875 -0.015625,0.125 -0.015625,0.171875 0,0.046875 0.03125,0.125 0.125,0.125 0.109375,0 0.125,-0.0625 0.140625,-0.25 L 7.609375,-6.515625 C 7.640625,-6.78125 7.59375,-6.78125 7.34375,-6.78125 H 2.296875 c -0.1875,0 -0.296875,0 -0.296875,0.203125 0,0.109375 0.09375,0.109375 0.28125,0.109375 0.375,0 0.65625,0 0.65625,0.171875 0,0.046875 0,0.0625 -0.0625,0.25 L 1.5625,-0.78125 c -0.09375,0.390625 -0.109375,0.46875 -0.90625,0.46875 -0.171875,0 -0.28125,0 -0.28125,0.1875 C 0.375,0 0.46875,0 0.65625,0 h 5.171875 c 0.234375,0 0.25,-0.015625 0.3125,-0.171875 z m 0,0"
             id="id-cf179c4e-3d14-45c8-81b7-caf90d41ec32" />
        </g>
      </g>
    </g>
    <g
       transform="matrix(0.352778,0,0,0.352778,57.722901,94.254433)"
       ns1:version="1.8.2"
       ns1:texconverter="pdflatex"
       ns1:pdfconverter="inkscape"
       ns1:text="$\\chi_E$\n"
       ns1:preamble="/home/kyrem1/.config/inkscape/extensions/textext/default_packages.tex"
       ns1:scale="1.0"
       ns1:alignment="middle center"
       ns1:stroke-to-path="0"
       ns1:inkscapeversion="1.2.2"
       ns1:jacobian_sqrt="0.352778"
       id="g409">
      <defs
         id="id-0644229c-e52d-4d6e-af4c-3d8a3ea84f3f">
        <g
           id="id-2fcbb41c-dd8a-43b1-a0c8-f0d6d22e8ce8">
          <g
             id="id-c2e8d2d9-bb3d-4a55-b9d6-b5c98dba1126" />
          <g
             id="id-a7ad4c8d-74bc-4f80-b6b4-8db254a09dd4">
            <path
               d="m 5.8125,-4.015625 c 0.109375,-0.109375 0.109375,-0.125 0.109375,-0.15625 0,-0.0625 -0.046875,-0.125 -0.125,-0.125 -0.0625,0 -0.09375,0.046875 -0.15625,0.125 l -2.28125,2.53125 C 2.953125,-2.90625 2.875,-3.15625 2.65625,-3.671875 2.546875,-3.90625 2.328125,-4.40625 1.453125,-4.40625 c -0.578125,0 -0.84375,0.515625 -0.84375,0.65625 0,0.015625 0,0.09375 0.125,0.09375 0.078125,0 0.109375,-0.046875 0.125,-0.109375 C 1,-4.140625 1.328125,-4.1875 1.390625,-4.1875 c 0.296875,0 0.59375,0.765625 0.765625,1.203125 0.3125,0.78125 0.640625,1.9375 0.640625,1.96875 0,0.015625 0,0.03125 -0.078125,0.109375 L 0.421875,1.65625 C 0.3125,1.765625 0.3125,1.78125 0.3125,1.8125 c 0,0.0625 0.0625,0.125 0.109375,0.125 0.078125,0 0.125,-0.078125 0.171875,-0.109375 L 2.875,-0.734375 C 3.1875,0.296875 3.3125,0.6875 3.546875,1.25 3.671875,1.546875 3.890625,2.046875 4.78125,2.046875 5.359375,2.046875 5.625,1.53125 5.625,1.390625 5.625,1.34375 5.609375,1.28125 5.515625,1.28125 5.40625,1.28125 5.40625,1.328125 5.375,1.421875 c -0.09375,0.25 -0.34375,0.40625 -0.53125,0.40625 -0.5,0 -1.1875,-2.421875 -1.40625,-3.1875 z m 0,0"
               id="id-6c8577b2-ea07-49ae-8770-df87639fc400" />
          </g>
          <g
             id="id-150ba5bc-ff7f-4c32-becd-c7417b14bbbc" />
          <g
             id="id-9b27207f-052c-4f41-aa91-1eaad1691022">
            <path
               d="m 5.515625,-1.609375 c 0.046875,-0.09375 0.046875,-0.125 0.046875,-0.125 0,-0.046875 -0.03125,-0.09375 -0.125,-0.09375 -0.015625,0 -0.046875,0 -0.078125,0.015625 0,0.015625 -0.015625,0.03125 -0.09375,0.203125 C 4.8125,-0.59375 4.453125,-0.25 3.3125,-0.25 H 2.125 c -0.203125,0 -0.21875,-0.015625 -0.21875,-0.078125 0,0 0,-0.03125 0.03125,-0.140625 L 2.40625,-2.328125 H 3.1875 c 0.546875,0 0.625,0.078125 0.625,0.3125 0,0.078125 -0.015625,0.203125 -0.046875,0.3125 C 3.75,-1.640625 3.75,-1.625 3.75,-1.609375 c 0,0 0,0.09375 0.125,0.09375 0.09375,0 0.09375,-0.03125 0.125,-0.15625 l 0.390625,-1.53125 c 0.015625,-0.078125 0.015625,-0.09375 0.015625,-0.09375 0,-0.078125 -0.0625,-0.109375 -0.125,-0.109375 -0.09375,0 -0.09375,0.046875 -0.140625,0.1875 C 4,-2.671875 3.796875,-2.578125 3.203125,-2.578125 H 2.46875 L 2.890625,-4.25 c 0.046875,-0.203125 0.0625,-0.234375 0.34375,-0.234375 H 4.375 c 0.921875,0 1.140625,0.1875 1.140625,0.8125 0,0.1875 -0.03125,0.390625 -0.03125,0.421875 0,0.0625 0.03125,0.125 0.125,0.125 0.109375,0 0.109375,-0.0625 0.125,-0.1875 l 0.125,-1.203125 C 5.875,-4.734375 5.828125,-4.734375 5.65625,-4.734375 H 1.828125 c -0.140625,0 -0.21875,0 -0.21875,0.15625 0,0.09375 0.0625,0.09375 0.21875,0.09375 0.109375,0 0.140625,0 0.265625,0.015625 C 2.234375,-4.453125 2.25,-4.4375 2.25,-4.375 c 0,0.046875 -0.015625,0.125 -0.03125,0.15625 L 1.3125,-0.578125 C 1.234375,-0.296875 1.234375,-0.25 0.6875,-0.25 c -0.125,0 -0.203125,0 -0.203125,0.15625 C 0.484375,0 0.5625,0 0.6875,0 H 4.625 c 0.171875,0 0.1875,0 0.234375,-0.125 z m 0,0"
               id="id-bbfb1909-2168-421f-96fe-52072d8f4668" />
          </g>
        </g>
      </defs>
      <g
         fill="#000000"
         fill-opacity="1"
         id="id-20d40582-fcbc-49e2-90c6-edebbd3d10f1"
         transform="translate(-149.025,-130.359)">
        <g
           transform="translate(148.712,134.765)"
           id="g402">
          <path
             d="m 5.8125,-4.015625 c 0.109375,-0.109375 0.109375,-0.125 0.109375,-0.15625 0,-0.0625 -0.046875,-0.125 -0.125,-0.125 -0.0625,0 -0.09375,0.046875 -0.15625,0.125 l -2.28125,2.53125 C 2.953125,-2.90625 2.875,-3.15625 2.65625,-3.671875 2.546875,-3.90625 2.328125,-4.40625 1.453125,-4.40625 c -0.578125,0 -0.84375,0.515625 -0.84375,0.65625 0,0.015625 0,0.09375 0.125,0.09375 0.078125,0 0.109375,-0.046875 0.125,-0.109375 C 1,-4.140625 1.328125,-4.1875 1.390625,-4.1875 c 0.296875,0 0.59375,0.765625 0.765625,1.203125 0.3125,0.78125 0.640625,1.9375 0.640625,1.96875 0,0.015625 0,0.03125 -0.078125,0.109375 L 0.421875,1.65625 C 0.3125,1.765625 0.3125,1.78125 0.3125,1.8125 c 0,0.0625 0.0625,0.125 0.109375,0.125 0.078125,0 0.125,-0.078125 0.171875,-0.109375 L 2.875,-0.734375 C 3.1875,0.296875 3.3125,0.6875 3.546875,1.25 3.671875,1.546875 3.890625,2.046875 4.78125,2.046875 5.359375,2.046875 5.625,1.53125 5.625,1.390625 5.625,1.34375 5.609375,1.28125 5.515625,1.28125 5.40625,1.28125 5.40625,1.328125 5.375,1.421875 c -0.09375,0.25 -0.34375,0.40625 -0.53125,0.40625 -0.5,0 -1.1875,-2.421875 -1.40625,-3.1875 z m 0,0"
             id="id-0a7b33c1-6ebe-4e65-8d91-b7fb0218d602" />
        </g>
      </g>
      <g
         fill="#000000"
         fill-opacity="1"
         id="id-5a7de188-e197-4025-ad82-b923b4abb388"
         transform="translate(-149.025,-130.359)">
        <g
           transform="translate(154.946,136.259)"
           id="g406">
          <path
             d="m 5.515625,-1.609375 c 0.046875,-0.09375 0.046875,-0.125 0.046875,-0.125 0,-0.046875 -0.03125,-0.09375 -0.125,-0.09375 -0.015625,0 -0.046875,0 -0.078125,0.015625 0,0.015625 -0.015625,0.03125 -0.09375,0.203125 C 4.8125,-0.59375 4.453125,-0.25 3.3125,-0.25 H 2.125 c -0.203125,0 -0.21875,-0.015625 -0.21875,-0.078125 0,0 0,-0.03125 0.03125,-0.140625 L 2.40625,-2.328125 H 3.1875 c 0.546875,0 0.625,0.078125 0.625,0.3125 0,0.078125 -0.015625,0.203125 -0.046875,0.3125 C 3.75,-1.640625 3.75,-1.625 3.75,-1.609375 c 0,0 0,0.09375 0.125,0.09375 0.09375,0 0.09375,-0.03125 0.125,-0.15625 l 0.390625,-1.53125 c 0.015625,-0.078125 0.015625,-0.09375 0.015625,-0.09375 0,-0.078125 -0.0625,-0.109375 -0.125,-0.109375 -0.09375,0 -0.09375,0.046875 -0.140625,0.1875 C 4,-2.671875 3.796875,-2.578125 3.203125,-2.578125 H 2.46875 L 2.890625,-4.25 c 0.046875,-0.203125 0.0625,-0.234375 0.34375,-0.234375 H 4.375 c 0.921875,0 1.140625,0.1875 1.140625,0.8125 0,0.1875 -0.03125,0.390625 -0.03125,0.421875 0,0.0625 0.03125,0.125 0.125,0.125 0.109375,0 0.109375,-0.0625 0.125,-0.1875 l 0.125,-1.203125 C 5.875,-4.734375 5.828125,-4.734375 5.65625,-4.734375 H 1.828125 c -0.140625,0 -0.21875,0 -0.21875,0.15625 0,0.09375 0.0625,0.09375 0.21875,0.09375 0.109375,0 0.140625,0 0.265625,0.015625 C 2.234375,-4.453125 2.25,-4.4375 2.25,-4.375 c 0,0.046875 -0.015625,0.125 -0.03125,0.15625 L 1.3125,-0.578125 C 1.234375,-0.296875 1.234375,-0.25 0.6875,-0.25 c -0.125,0 -0.203125,0 -0.203125,0.15625 C 0.484375,0 0.5625,0 0.6875,0 H 4.625 c 0.171875,0 0.1875,0 0.234375,-0.125 z m 0,0"
             id="id-18f14b49-c492-402d-a2b5-1d438c19e485" />
        </g>
      </g>
    </g>
  </g>
  <g
     inkscape:groupmode="layer"
     id="layer2"
     inkscape:label="markers">
    <path
       style="mix-blend-mode:normal;fill:none;stroke:#ba4444;stroke-width:0.255827px;stroke-linecap:butt;stroke-linejoin:miter;stroke-dasharray:0.255827, 0.255827;stroke-dashoffset:0;stroke-opacity:1"
       d="m 26.531767,105.4892 0.288973,23.34867"
       id="path971" />
    <path
       style="mix-blend-mode:normal;fill:none;stroke:#ba4444;stroke-width:0.264583px;stroke-linecap:butt;stroke-linejoin:miter;stroke-dasharray:0.264583, 0.264583;stroke-dashoffset:0;stroke-opacity:1"
       d="m 55.459732,106.14921 0.288613,25.00543"
       id="path971-7" />
    <path
       style="mix-blend-mode:normal;fill:none;stroke:#ba4444;stroke-width:0.269448px;stroke-linecap:butt;stroke-linejoin:miter;stroke-dasharray:0.269448, 0.269448;stroke-dashoffset:0;stroke-opacity:1"
       d="m 42.057706,108.07819 0.288413,25.95145"
       id="path971-5" />
    <path
       style="mix-blend-mode:normal;fill:none;stroke:#ba4444;stroke-width:0.268429px;stroke-linecap:butt;stroke-linejoin:miter;stroke-dasharray:0.268429, 0.268429;stroke-dashoffset:0;stroke-opacity:1"
       d="m 87.333897,106.52582 0.288455,25.75172"
       id="path971-3" />
    <path
       style="mix-blend-mode:normal;fill:none;stroke:#ba4444;stroke-width:0.26767px;stroke-linecap:butt;stroke-linejoin:miter;stroke-dasharray:0.26767, 0.26767;stroke-dashoffset:0;stroke-opacity:1"
       d="m 31.340376,107.37851 0.288486,25.60356"
       id="path971-3-5" />
  </g>
</svg>
