<?xml version="1.0" encoding="UTF-8" standalone="no"?>
<!-- Created with Inkscape (http://www.inkscape.org/) -->

<svg
   inkscape:version="1.2.2 (b0a8486541, 2022-12-01)"
   sodipodi:docname="interactionOmegaPlusDecompose.svg"
   id="svg49099"
   version="1.1"
   viewBox="0 0 187.62323 66.79969"
   height="66.79969mm"
   width="187.62323mm"
   xml:space="preserve"
   xmlns:inkscape="http://www.inkscape.org/namespaces/inkscape"
   xmlns:sodipodi="http://sodipodi.sourceforge.net/DTD/sodipodi-0.dtd"
   xmlns:xlink="http://www.w3.org/1999/xlink"
   xmlns="http://www.w3.org/2000/svg"
   xmlns:svg="http://www.w3.org/2000/svg"
   xmlns:ns2="http://www.iki.fi/pav/software/textext/"><sodipodi:namedview
     id="namedview49101"
     pagecolor="#ffffff"
     bordercolor="#000000"
     borderopacity="0.25"
     inkscape:showpageshadow="2"
     inkscape:pageopacity="0.0"
     inkscape:pagecheckerboard="0"
     inkscape:deskcolor="#d1d1d1"
     inkscape:document-units="mm"
     showgrid="false"
     inkscape:zoom="1.5981902"
     inkscape:cx="345.39067"
     inkscape:cy="162.37116"
     inkscape:window-width="1900"
     inkscape:window-height="1044"
     inkscape:window-x="10"
     inkscape:window-y="26"
     inkscape:window-maximized="1"
     inkscape:current-layer="layer1" /><defs
     id="defs49096"><pattern
       inkscape:collect="always"
       xlink:href="#Wavy"
       id="pattern10471"
       patternTransform="matrix(0.26458333,0,0,0.26458333,99.037525,-1.9280356)" /><marker
       style="overflow:visible"
       id="marker6225"
       refX="0"
       refY="0"
       orient="auto-start-reverse"
       inkscape:stockid="Arrow1L"
       markerWidth="8.75"
       markerHeight="5"
       viewBox="0 0 8.75 5"
       inkscape:isstock="true"
       inkscape:collect="always"
       preserveAspectRatio="xMidYMid"><path
         style="fill:context-stroke;fill-rule:evenodd;stroke:none"
         d="M 0,0 5,-5 -12.5,0 5,5 Z"
         id="path6223"
         transform="scale(-0.5)" /></marker><marker
       style="overflow:visible"
       id="marker6181"
       refX="0"
       refY="0"
       orient="auto-start-reverse"
       inkscape:stockid="Arrow1L"
       markerWidth="8.75"
       markerHeight="5"
       viewBox="0 0 8.75 5"
       inkscape:isstock="true"
       inkscape:collect="always"
       preserveAspectRatio="xMidYMid"><path
         style="fill:context-stroke;fill-rule:evenodd;stroke:none"
         d="M 0,0 5,-5 -12.5,0 5,5 Z"
         id="path6179"
         transform="scale(-0.5)" /></marker><marker
       style="overflow:visible"
       id="marker6133"
       refX="0"
       refY="0"
       orient="auto-start-reverse"
       inkscape:stockid="Arrow1L"
       markerWidth="8.75"
       markerHeight="5"
       viewBox="0 0 8.75 5"
       inkscape:isstock="true"
       inkscape:collect="always"
       preserveAspectRatio="xMidYMid"><path
         style="fill:context-stroke;fill-rule:evenodd;stroke:none"
         d="M 0,0 5,-5 -12.5,0 5,5 Z"
         id="path6131"
         transform="scale(-0.5)" /></marker><marker
       style="overflow:visible"
       id="Arrow1L"
       refX="0"
       refY="0"
       orient="auto-start-reverse"
       inkscape:stockid="Arrow1L"
       markerWidth="8.75"
       markerHeight="5"
       viewBox="0 0 8.75 5"
       inkscape:isstock="true"
       inkscape:collect="always"
       preserveAspectRatio="xMidYMid"><path
         style="fill:context-stroke;fill-rule:evenodd;stroke:none"
         d="M 0,0 5,-5 -12.5,0 5,5 Z"
         id="arrow1L"
         transform="scale(-0.5)" /></marker><pattern
       inkscape:collect="always"
       patternUnits="userSpaceOnUse"
       width="30.066020"
       height="5.1805778"
       id="Wavy"
       inkscape:stockid="Wavy"
       inkscape:isstock="true"><path
         style="fill:black;stroke:none;"
         d="M 7.597,0.061 C 5.079,-0.187 2.656,0.302 -0.01,1.788 L -0.01,3.061 C 2.773,1.431 5.173,1.052 7.472,1.280 C 9.770,1.508 11.969,2.361 14.253,3.218 C 18.820,4.931 23.804,6.676 30.066,3.061 L 30.062,1.788 C 23.622,5.497 19.246,3.770 14.691,2.061 C 12.413,1.207 10.115,0.311 7.597,0.061 z "
         id="path72982" /></pattern><marker
       style="overflow:visible"
       id="Arrow2"
       refX="0"
       refY="0"
       orient="auto-start-reverse"
       inkscape:stockid="Arrow2"
       markerWidth="7.6999998"
       markerHeight="5.5999999"
       viewBox="0 0 7.7 5.6"
       inkscape:isstock="true"
       inkscape:collect="always"
       preserveAspectRatio="xMidYMid"><path
         transform="scale(0.7)"
         d="M -2,-4 9,0 -2,4 c 2,-2.33 2,-5.66 0,-8 z"
         style="fill:context-stroke;fill-rule:evenodd;stroke:none"
         id="arrow2L" /></marker><g
       id="id-12b8c2d1-a14b-4a7b-a374-43006c643898"><g
         id="id-240e2f2c-efb3-447a-bb48-d6f881949ea5" /><g
         id="id-595ac6d4-0b3a-4280-97ee-4b1a0a2da51c"><path
           d="M 6.75,-1.609375 H 6.5 c -0.046875,0.25 -0.09375,0.484375 -0.1875,0.71875 -0.046875,0.15625 -0.078125,0.25 -0.65625,0.25 H 4.859375 C 5,-1.203125 5.296875,-1.6875 5.75,-2.34375 c 0.46875,-0.703125 0.875,-1.390625 0.875,-2.1875 0,-1.375 -1.34375,-2.5 -3.03125,-2.5 -1.703125,0 -3.03125,1.140625 -3.03125,2.5 0,0.796875 0.40625,1.484375 0.875,2.1875 0.4375,0.65625 0.75,1.140625 0.890625,1.703125 H 1.53125 C 0.953125,-0.640625 0.921875,-0.734375 0.875,-0.875 0.78125,-1.109375 0.734375,-1.359375 0.6875,-1.609375 h -0.25 L 0.765625,0 h 1.59375 c 0.21875,0 0.25,0 0.25,-0.203125 0,-0.703125 -0.3125,-1.578125 -0.53125,-2.21875 -0.21875,-0.578125 -0.5,-1.359375 -0.5,-2.109375 0,-1.59375 1.109375,-2.28125 2.015625,-2.28125 0.953125,0 2.015625,0.71875 2.015625,2.28125 0,0.75 -0.28125,1.5 -0.5625,2.3125 -0.15625,0.421875 -0.46875,1.328125 -0.46875,2.015625 C 4.578125,0 4.609375,0 4.828125,0 h 1.59375 z m 0,0"
           id="id-d422746b-14ac-4929-9455-f4bfea8e8b27" /></g></g><g
       id="id-31e1a73b-8ccd-4f20-bd66-1cfc7bbcaee0"><g
         id="id-bbd18d76-d280-4fbd-b4c8-35880591640d" /><g
         id="id-30f250d8-e89a-4fc2-89d9-27062d912e77"><path
           d="M 6.75,-1.609375 H 6.5 c -0.046875,0.25 -0.09375,0.484375 -0.1875,0.71875 -0.046875,0.15625 -0.078125,0.25 -0.65625,0.25 H 4.859375 C 5,-1.203125 5.296875,-1.6875 5.75,-2.34375 c 0.46875,-0.703125 0.875,-1.390625 0.875,-2.1875 0,-1.375 -1.34375,-2.5 -3.03125,-2.5 -1.703125,0 -3.03125,1.140625 -3.03125,2.5 0,0.796875 0.40625,1.484375 0.875,2.1875 0.4375,0.65625 0.75,1.140625 0.890625,1.703125 H 1.53125 C 0.953125,-0.640625 0.921875,-0.734375 0.875,-0.875 0.78125,-1.109375 0.734375,-1.359375 0.6875,-1.609375 h -0.25 L 0.765625,0 h 1.59375 c 0.21875,0 0.25,0 0.25,-0.203125 0,-0.703125 -0.3125,-1.578125 -0.53125,-2.21875 -0.21875,-0.578125 -0.5,-1.359375 -0.5,-2.109375 0,-1.59375 1.109375,-2.28125 2.015625,-2.28125 0.953125,0 2.015625,0.71875 2.015625,2.28125 0,0.75 -0.28125,1.5 -0.5625,2.3125 -0.15625,0.421875 -0.46875,1.328125 -0.46875,2.015625 C 4.578125,0 4.609375,0 4.828125,0 h 1.59375 z m 0,0"
           id="id-41601b51-334b-41f5-9cd0-573cd31feb59" /></g><g
         id="id-1c509574-200d-4373-bd53-b6ea5bc32fcf" /><g
         id="id-cbbdeb0c-ba23-431b-978f-5bbcc573ba24"><path
           d="m 3.046875,-2.671875 c -0.25,0.046875 -0.34375,0.234375 -0.34375,0.390625 0,0.1875 0.140625,0.265625 0.265625,0.265625 0.15625,0 0.390625,-0.109375 0.390625,-0.453125 0,-0.46875 -0.53125,-0.609375 -0.90625,-0.609375 -1.046875,0 -2.015625,0.96875 -2.015625,1.9375 0,0.59375 0.40625,1.203125 1.28125,1.203125 1.1875,0 1.734375,-0.6875 1.734375,-0.78125 0,-0.046875 -0.0625,-0.125 -0.125,-0.125 -0.03125,0 -0.046875,0.015625 -0.109375,0.078125 C 2.671875,-0.125 1.859375,-0.125 1.734375,-0.125 c -0.5,0 -0.71875,-0.34375 -0.71875,-0.78125 0,-0.1875 0.09375,-0.953125 0.453125,-1.4375 0.265625,-0.34375 0.625,-0.53125 0.984375,-0.53125 0.09375,0 0.421875,0.015625 0.59375,0.203125 z m 0,0"
           id="id-29c902f4-da6b-40f3-a135-78f0cb0b515d" /></g></g></defs><g
     inkscape:label="Layer 1"
     inkscape:groupmode="layer"
     id="layer1"
     transform="translate(-6.5494571,-6.8542836)"><ellipse
       style="fill:none;fill-rule:evenodd;stroke:#1a1a1a;stroke-width:0.555;stroke-dasharray:none;stroke-dashoffset:0.4665"
       id="path50003"
       cx="147.55042"
       cy="46.971992"
       rx="39.010029"
       ry="20.892906" /><path
       style="fill:none;fill-rule:evenodd;stroke:#d56a11;stroke-width:0.255;stroke-dasharray:none;stroke-dashoffset:1.76315"
       d="m 122.23185,69.077072 c 3.39063,1.168231 11.11818,-1.007666 13.8911,2.721452 3.48094,2.250218 4.60364,-1.881455 7.94446,1.286928 3.08824,1.569324 6.17988,-1.479161 9.90103,-2.305731 3.15508,-2.086277 5.1663,-1.314696 9.07141,-0.222829 3.46823,-0.05231 6.80321,4.165744 8.56256,0.127456 1.22443,-2.357024 2.73374,-1.699506 5.26787,-3.532673 2.11897,-3.155463 2.66683,-4.174966 7.01058,-1.243286 2.60601,2.097946 3.52782,-1.660599 4.62761,-5.11913 1.07251,-3.100877 -1.58126,-4.412753 2.33907,-6.431694 2.70152,-0.05859 3.81989,-1.235631 2.85361,-5.365667 -0.14393,-3.296979 -0.5508,-6.664074 -1.60312,-9.804425 -1.14393,-3.022848 -2.27341,-11.678618 -5.16079,-8.965506 -3.61137,0.861336 -6.14689,0.948904 -6.92995,-1.467905 -0.64343,-2.896632 -1.57073,-7.28939 -5.31786,-7.234728 -3.42442,-0.06374 -4.8643,-2.290871 -6.18078,-0.176978 -0.66041,3.588698 -3.03776,1.412918 -3.27542,-0.811095 -1.14638,-2.621915 -1.28926,-4.039599 -5.26169,-2.339864 -3.95099,0.750502 -5.01973,1.1832 -8.70916,2.127454 -4.06508,0.506446 -7.23647,1.086192 -11.49013,1.147162 -3.86746,-1.081088 -7.95932,-1.527203 -11.99462,-1.73171 -3.95627,-0.01159 -8.21889,-0.517742 -11.73154,1.667504 -2.34759,1.358675 -7.78983,4.761205 -4.87348,7.704982 2.93028,1.977465 -0.10866,4.419174 -3.09103,6.669655 -4.45586,1.346772 -4.72752,7.511181 -5.03012,11.480089 -0.71698,4.230049 4.79908,8.641188 6.05427,12.441691 0.47273,3.345804 2.51634,4.575976 6.45635,6.158969 z"
       id="path50550"
       sodipodi:nodetypes="cccccccccccccccccccccccccccc" /><g
       transform="matrix(0.352778,0,0,0.352778,104.46366,30.162228)"
       ns2:version="1.8.2"
       ns2:texconverter="pdflatex"
       ns2:pdfconverter="inkscape"
       ns2:text="$D_i$"
       ns2:preamble="/home/kyrem1/.config/inkscape/extensions/textext/default_packages.tex"
       ns2:scale="1.0"
       ns2:alignment="middle center"
       ns2:stroke-to-path="0"
       ns2:jacobian_sqrt="0.352778"
       id="g51817"
       style="fill:#d56a11;fill-opacity:1"><defs
         id="id-169b0f49-d841-409a-aea4-bcc8bf719006"><g
           id="id-d52bfd63-ee49-44e2-9580-170b3371b8f6"><g
             id="id-dfb2249b-35f6-4ed6-a805-89aaf1acd3f9" /><g
             id="id-6fdf0608-d5b2-4908-91b8-1ea2930e5f46"><path
               d="m 1.578125,-0.78125 c -0.09375,0.390625 -0.109375,0.46875 -0.90625,0.46875 -0.15625,0 -0.265625,0 -0.265625,0.1875 C 0.40625,0 0.484375,0 0.671875,0 h 3.3125 c 2.0625,0 4.03125,-2.109375 4.03125,-4.28125 0,-1.40625 -0.84375,-2.53125 -2.34375,-2.53125 h -3.34375 c -0.1875,0 -0.296875,0 -0.296875,0.1875 0,0.125 0.078125,0.125 0.28125,0.125 0.125,0 0.3125,0.015625 0.421875,0.015625 0.171875,0.03125 0.21875,0.046875 0.21875,0.171875 0,0.03125 0,0.0625 -0.03125,0.1875 z M 3.734375,-6.125 C 3.828125,-6.46875 3.84375,-6.5 4.28125,-6.5 h 1.0625 c 0.96875,0 1.796875,0.53125 1.796875,1.84375 0,0.484375 -0.1875,2.125 -1.046875,3.21875 -0.28125,0.375 -1.0625,1.125 -2.296875,1.125 h -1.125 c -0.140625,0 -0.15625,0 -0.21875,0 -0.09375,-0.015625 -0.125,-0.03125 -0.125,-0.109375 0,-0.03125 0,-0.046875 0.046875,-0.21875 z m 0,0"
               id="id-d1262af7-13ad-424e-9f96-0cbeb299a397" /></g><g
             id="id-25bfac9c-c650-4b74-8e5a-0ce2ca616c26" /><g
             id="id-5ea30686-d9e7-40e8-b293-b9bd5db79cd6"><path
               d="m 2.265625,-4.359375 c 0,-0.109375 -0.09375,-0.265625 -0.28125,-0.265625 -0.1875,0 -0.390625,0.1875 -0.390625,0.390625 0,0.109375 0.078125,0.265625 0.28125,0.265625 0.1875,0 0.390625,-0.203125 0.390625,-0.390625 z M 0.84375,-0.8125 c -0.03125,0.09375 -0.0625,0.171875 -0.0625,0.296875 0,0.328125 0.265625,0.578125 0.65625,0.578125 0.6875,0 1,-0.953125 1,-1.0625 0,-0.09375 -0.09375,-0.09375 -0.109375,-0.09375 -0.09375,0 -0.109375,0.046875 -0.140625,0.125 -0.15625,0.5625 -0.453125,0.84375 -0.734375,0.84375 -0.140625,0 -0.171875,-0.09375 -0.171875,-0.25 0,-0.15625 0.046875,-0.28125 0.109375,-0.4375 C 1.46875,-1 1.546875,-1.1875 1.609375,-1.375 1.671875,-1.546875 1.9375,-2.171875 1.953125,-2.265625 1.984375,-2.328125 2,-2.40625 2,-2.484375 2,-2.8125 1.71875,-3.078125 1.34375,-3.078125 0.640625,-3.078125 0.328125,-2.125 0.328125,-2 c 0,0.078125 0.09375,0.078125 0.125,0.078125 0.09375,0 0.09375,-0.03125 0.125,-0.109375 C 0.75,-2.625 1.0625,-2.875 1.3125,-2.875 c 0.109375,0 0.171875,0.046875 0.171875,0.234375 0,0.171875 -0.03125,0.265625 -0.203125,0.703125 z m 0,0"
               id="id-aa4ae1c6-1736-4712-806b-995ae3c2ae32" /></g></g></defs><g
         fill="#000000"
         fill-opacity="1"
         id="id-72446e90-fab1-4b8d-9a21-3fd8af7ed1f4"
         transform="translate(-149.118,-127.953)"
         style="fill:#d56a11;fill-opacity:1"><g
           transform="translate(148.712,134.765)"
           id="g51810"
           style="fill:#d56a11;fill-opacity:1"><path
             d="m 1.578125,-0.78125 c -0.09375,0.390625 -0.109375,0.46875 -0.90625,0.46875 -0.15625,0 -0.265625,0 -0.265625,0.1875 C 0.40625,0 0.484375,0 0.671875,0 h 3.3125 c 2.0625,0 4.03125,-2.109375 4.03125,-4.28125 0,-1.40625 -0.84375,-2.53125 -2.34375,-2.53125 h -3.34375 c -0.1875,0 -0.296875,0 -0.296875,0.1875 0,0.125 0.078125,0.125 0.28125,0.125 0.125,0 0.3125,0.015625 0.421875,0.015625 0.171875,0.03125 0.21875,0.046875 0.21875,0.171875 0,0.03125 0,0.0625 -0.03125,0.1875 z M 3.734375,-6.125 C 3.828125,-6.46875 3.84375,-6.5 4.28125,-6.5 h 1.0625 c 0.96875,0 1.796875,0.53125 1.796875,1.84375 0,0.484375 -0.1875,2.125 -1.046875,3.21875 -0.28125,0.375 -1.0625,1.125 -2.296875,1.125 h -1.125 c -0.140625,0 -0.15625,0 -0.21875,0 -0.09375,-0.015625 -0.125,-0.03125 -0.125,-0.109375 0,-0.03125 0,-0.046875 0.046875,-0.21875 z m 0,0"
             id="id-8e7daf31-67fd-4569-bf6d-e3e407cca759"
             style="fill:#d56a11;fill-opacity:1" /></g></g><g
         fill="#000000"
         fill-opacity="1"
         id="id-f986a765-122f-4168-9564-77117c5ee77e"
         transform="translate(-149.118,-127.953)"
         style="fill:#d56a11;fill-opacity:1"><g
           transform="translate(156.961,136.259)"
           id="g51814"
           style="fill:#d56a11;fill-opacity:1"><path
             d="m 2.265625,-4.359375 c 0,-0.109375 -0.09375,-0.265625 -0.28125,-0.265625 -0.1875,0 -0.390625,0.1875 -0.390625,0.390625 0,0.109375 0.078125,0.265625 0.28125,0.265625 0.1875,0 0.390625,-0.203125 0.390625,-0.390625 z M 0.84375,-0.8125 c -0.03125,0.09375 -0.0625,0.171875 -0.0625,0.296875 0,0.328125 0.265625,0.578125 0.65625,0.578125 0.6875,0 1,-0.953125 1,-1.0625 0,-0.09375 -0.09375,-0.09375 -0.109375,-0.09375 -0.09375,0 -0.109375,0.046875 -0.140625,0.125 -0.15625,0.5625 -0.453125,0.84375 -0.734375,0.84375 -0.140625,0 -0.171875,-0.09375 -0.171875,-0.25 0,-0.15625 0.046875,-0.28125 0.109375,-0.4375 C 1.46875,-1 1.546875,-1.1875 1.609375,-1.375 1.671875,-1.546875 1.9375,-2.171875 1.953125,-2.265625 1.984375,-2.328125 2,-2.40625 2,-2.484375 2,-2.8125 1.71875,-3.078125 1.34375,-3.078125 0.640625,-3.078125 0.328125,-2.125 0.328125,-2 c 0,0.078125 0.09375,0.078125 0.125,0.078125 0.09375,0 0.09375,-0.03125 0.125,-0.109375 C 0.75,-2.625 1.0625,-2.875 1.3125,-2.875 c 0.109375,0 0.171875,0.046875 0.171875,0.234375 0,0.171875 -0.03125,0.265625 -0.203125,0.703125 z m 0,0"
             id="id-361224a1-05ea-49cd-90be-a60f3159e8f0"
             style="fill:#d56a11;fill-opacity:1" /></g></g></g><path
       style="opacity:0.117097;fill:url(#pattern10471);fill-opacity:1;fill-rule:nonzero;stroke:#d56a11;stroke-width:0.112823;stroke-dashoffset:1.76315"
       d="m 144.49237,73.02144 c -0.26587,-0.144864 -0.76431,-0.458483 -1.10764,-0.696925 -1.1594,-0.80521 -1.78105,-0.836624 -4.07759,-0.206066 -1.34984,0.370623 -2.49994,0.107162 -3.2815,-0.751713 -0.47977,-0.527235 -1.32205,-1.07342 -2.12901,-1.38058 -1.27091,-0.483761 -2.12834,-0.575672 -6.35431,-0.681133 -2.25346,-0.05624 -4.32864,-0.160297 -4.61152,-0.231248 -0.28288,-0.07095 -1.94224,-0.818205 -3.68748,-1.660567 -1.74524,-0.842362 -3.87207,-1.837042 -4.72629,-2.210401 -1.79941,-0.786469 -3.3211,-1.753756 -3.93226,-2.499601 -0.54863,-0.669522 -1.10053,-1.836486 -1.19249,-2.521426 -0.12309,-0.916831 -1.14546,-2.75998 -2.98999,-5.390422 -1.94537,-2.774257 -2.82826,-4.400955 -3.09531,-5.703052 -0.1526,-0.744058 -0.15231,-1.07915 0.002,-2.86804 0.32606,-3.768797 0.69434,-5.504887 1.52852,-7.205544 0.68896,-1.404599 1.4808,-2.2337 2.65243,-2.777275 0.9614,-0.446035 3.05565,-2.067658 3.89567,-3.016491 0.74318,-0.839462 1.11369,-1.592011 1.11369,-2.262018 0,-0.731465 -0.26807,-1.247156 -0.94136,-1.810862 -0.63193,-0.529084 -1.04875,-1.275035 -1.04861,-1.876628 2.9e-4,-1.245582 1.54135,-3.045913 4.00474,-4.67849 2.47926,-1.643092 4.05935,-2.284239 6.33164,-2.56916 1.22814,-0.153996 6.56671,-0.153637 8.68624,5.82e-4 3.35268,0.24395 6.67487,0.739729 9.1309,1.36263 1.06399,0.269852 1.30392,0.289871 2.63391,0.219772 1.89624,-0.09994 4.21845,-0.340552 7.48588,-0.775628 2.09626,-0.279127 3.15285,-0.48998 5.21016,-1.039746 1.41936,-0.379288 3.23914,-0.828487 4.04395,-0.99822 0.8048,-0.169733 2.0283,-0.48964 2.71889,-0.710904 2.45749,-0.787383 3.06075,-0.511886 3.98946,1.821895 0.16654,0.4185 0.38327,1.054 0.48163,1.412223 0.32241,1.17417 1.2115,2.098272 2.01971,2.099224 0.54386,6.35e-4 1.05078,-0.557792 1.29115,-1.422358 0.21626,-0.777877 0.77051,-1.386712 1.26238,-1.386712 0.1556,0 0.94646,0.210702 1.75745,0.468227 1.06305,0.33756 1.82417,0.499474 2.72738,0.580198 1.53805,0.137463 2.19798,0.355445 2.87185,0.948612 1.03522,0.911238 1.67814,2.260369 2.37512,4.984058 0.50575,1.976403 0.80107,2.479718 1.73789,2.96182 0.48965,0.251979 0.77139,0.304599 1.82382,0.340622 1.58457,0.05423 3.6333,-0.304977 4.2931,-0.752726 1.1681,-0.792695 2.10325,0.556257 3.25929,4.701479 0.35771,1.282655 0.83947,2.964241 1.07057,3.736856 1.05404,3.523869 1.44081,5.511424 1.67432,8.604117 0.0754,0.997961 0.2113,2.228549 0.30211,2.734641 0.49859,2.778821 -0.15951,3.961678 -2.35175,4.226959 -0.55159,0.06675 -0.86573,0.194321 -1.46328,0.594241 -0.4185,0.280086 -0.89261,0.706036 -1.05357,0.946555 -0.28439,0.424947 -0.29268,0.495427 -0.29335,2.493709 l -7.9e-4,2.056399 -0.62877,1.873007 c -0.71009,2.115246 -1.24321,3.260111 -1.75773,3.774623 -0.63641,0.63641 -1.14467,0.563014 -2.52876,-0.365162 -1.40583,-0.942764 -2.4474,-1.403877 -3.29268,-1.457699 -0.44073,-0.02806 -0.89258,0.01209 -1.09923,0.09769 -0.44043,0.182428 -1.4345,1.248211 -2.04731,2.195002 -0.53089,0.820211 -1.26269,1.297249 -3.19384,2.081964 -1.34172,0.5452 -1.9606,1.070684 -2.52424,2.143289 -0.45239,0.860898 -1.05472,1.486596 -1.55098,1.611151 -0.58688,0.147296 -1.46393,-0.0692 -3.16555,-0.781389 -1.04204,-0.436134 -2.09757,-0.790374 -2.66814,-0.895432 -0.51921,-0.0956 -1.62884,-0.349554 -2.46584,-0.564332 -3.54187,-0.908865 -4.80353,-0.873565 -6.90671,0.193246 -0.51507,0.261265 -1.27891,0.581308 -1.69741,0.711211 -0.41849,0.129897 -1.6301,0.620725 -2.69244,1.090731 -2.48326,1.098648 -3.29468,1.344607 -4.4359,1.344607 -0.71141,0 -1.0004,-0.05505 -1.38277,-0.263392 z m 6.77077,-4.945737 c 9.27054,-0.297802 19.57721,-3.134315 25.97235,-7.147883 2.01705,-1.265891 3.3665,-2.338456 4.98272,-3.960341 3.48795,-3.500162 4.92767,-6.981857 4.59516,-11.112495 -0.73251,-9.099565 -12.55129,-16.981916 -29.06884,-19.386999 -3.4869,-0.50772 -5.54557,-0.639845 -10.0674,-0.646118 -4.25882,-0.0059 -5.84062,0.07703 -9.01384,0.472636 -12.46378,1.553866 -22.78708,6.300457 -27.57682,12.679656 -4.69962,6.259182 -3.57738,13.487717 2.97406,19.156383 5.94515,5.144072 15.29948,8.592804 26.3587,9.717868 2.08811,0.212426 6.22808,0.38531 7.84321,0.327533 0.57946,-0.02074 1.92978,-0.06584 3.0007,-0.10024 z"
       id="path73901" /><g
       transform="matrix(0.352778,0,0,0.352778,145.23283,45.25819)"
       ns2:version="1.8.2"
       ns2:texconverter="pdflatex"
       ns2:pdfconverter="inkscape"
       ns2:text="$\\Omega$\n"
       ns2:preamble="/home/kyrem1/.config/inkscape/extensions/textext/default_packages.tex"
       ns2:scale="1.0"
       ns2:alignment="middle center"
       ns2:stroke-to-path="0"
       ns2:inkscapeversion="1.2.2"
       ns2:jacobian_sqrt="0.352778"
       id="g4901"><defs
         id="id-97aaf16a-1a6c-4986-ba0e-87d5518f9ae0"><g
           id="id-7de188fb-ee16-480e-8691-13fc5f730f3f"><g
             id="id-fe75cdde-ba20-4368-b2e3-882c675d1a10" /><g
             id="id-83af10ce-9bb8-450b-b620-c6a31e0accf6"><path
               d="M 6.75,-1.609375 H 6.5 c -0.046875,0.25 -0.09375,0.484375 -0.1875,0.71875 -0.046875,0.15625 -0.078125,0.25 -0.65625,0.25 H 4.859375 C 5,-1.203125 5.296875,-1.6875 5.75,-2.34375 c 0.46875,-0.703125 0.875,-1.390625 0.875,-2.1875 0,-1.375 -1.34375,-2.5 -3.03125,-2.5 -1.703125,0 -3.03125,1.140625 -3.03125,2.5 0,0.796875 0.40625,1.484375 0.875,2.1875 0.4375,0.65625 0.75,1.140625 0.890625,1.703125 H 1.53125 C 0.953125,-0.640625 0.921875,-0.734375 0.875,-0.875 0.78125,-1.109375 0.734375,-1.359375 0.6875,-1.609375 h -0.25 L 0.765625,0 h 1.59375 c 0.21875,0 0.25,0 0.25,-0.203125 0,-0.703125 -0.3125,-1.578125 -0.53125,-2.21875 -0.21875,-0.578125 -0.5,-1.359375 -0.5,-2.109375 0,-1.59375 1.109375,-2.28125 2.015625,-2.28125 0.953125,0 2.015625,0.71875 2.015625,2.28125 0,0.75 -0.28125,1.5 -0.5625,2.3125 -0.15625,0.421875 -0.46875,1.328125 -0.46875,2.015625 C 4.578125,0 4.609375,0 4.828125,0 h 1.59375 z m 0,0"
               id="id-1f425669-e309-4741-8ef3-04862546c9ce" /></g></g></defs><g
         fill="#000000"
         fill-opacity="1"
         id="id-f596c7eb-25fc-4b45-97ac-d5c886c033c0"
         transform="translate(-149.15,-127.734)"><g
           transform="translate(148.712,134.765)"
           id="g4898"><path
             d="M 6.75,-1.609375 H 6.5 c -0.046875,0.25 -0.09375,0.484375 -0.1875,0.71875 -0.046875,0.15625 -0.078125,0.25 -0.65625,0.25 H 4.859375 C 5,-1.203125 5.296875,-1.6875 5.75,-2.34375 c 0.46875,-0.703125 0.875,-1.390625 0.875,-2.1875 0,-1.375 -1.34375,-2.5 -3.03125,-2.5 -1.703125,0 -3.03125,1.140625 -3.03125,2.5 0,0.796875 0.40625,1.484375 0.875,2.1875 0.4375,0.65625 0.75,1.140625 0.890625,1.703125 H 1.53125 C 0.953125,-0.640625 0.921875,-0.734375 0.875,-0.875 0.78125,-1.109375 0.734375,-1.359375 0.6875,-1.609375 h -0.25 L 0.765625,0 h 1.59375 c 0.21875,0 0.25,0 0.25,-0.203125 0,-0.703125 -0.3125,-1.578125 -0.53125,-2.21875 -0.21875,-0.578125 -0.5,-1.359375 -0.5,-2.109375 0,-1.59375 1.109375,-2.28125 2.015625,-2.28125 0.953125,0 2.015625,0.71875 2.015625,2.28125 0,0.75 -0.28125,1.5 -0.5625,2.3125 -0.15625,0.421875 -0.46875,1.328125 -0.46875,2.015625 C 4.578125,0 4.609375,0 4.828125,0 h 1.59375 z m 0,0"
             id="id-9fa6a1fa-7962-47e1-90a4-7f4e1ecf1a72" /></g></g></g><g
       transform="matrix(0.352778,0,0,0.352778,138.95621,6.8544159)"
       ns2:version="1.8.2"
       ns2:texconverter="pdflatex"
       ns2:pdfconverter="inkscape"
       ns2:text="$\\Omega^c \\setminus D_i$"
       ns2:preamble="/home/kyrem1/.config/inkscape/extensions/textext/default_packages.tex"
       ns2:scale="1.0"
       ns2:alignment="middle center"
       ns2:stroke-to-path="0"
       ns2:inkscapeversion="1.2.2"
       ns2:jacobian_sqrt="0.352778"
       id="g5264"><defs
         id="id-58edda0d-13f2-4629-8382-d9ab78207f3d"><g
           id="id-99f3dec6-2182-480f-b16e-c52c22cca219"><g
             id="id-88063c84-b75b-494e-8d73-97ca5b144704" /><g
             id="id-225ece3d-8c7e-4e1b-ad94-e58e0992fa35"><path
               d="M 6.75,-1.609375 H 6.5 c -0.046875,0.25 -0.09375,0.484375 -0.1875,0.71875 -0.046875,0.15625 -0.078125,0.25 -0.65625,0.25 H 4.859375 C 5,-1.203125 5.296875,-1.6875 5.75,-2.34375 c 0.46875,-0.703125 0.875,-1.390625 0.875,-2.1875 0,-1.375 -1.34375,-2.5 -3.03125,-2.5 -1.703125,0 -3.03125,1.140625 -3.03125,2.5 0,0.796875 0.40625,1.484375 0.875,2.1875 0.4375,0.65625 0.75,1.140625 0.890625,1.703125 H 1.53125 C 0.953125,-0.640625 0.921875,-0.734375 0.875,-0.875 0.78125,-1.109375 0.734375,-1.359375 0.6875,-1.609375 h -0.25 L 0.765625,0 h 1.59375 c 0.21875,0 0.25,0 0.25,-0.203125 0,-0.703125 -0.3125,-1.578125 -0.53125,-2.21875 -0.21875,-0.578125 -0.5,-1.359375 -0.5,-2.109375 0,-1.59375 1.109375,-2.28125 2.015625,-2.28125 0.953125,0 2.015625,0.71875 2.015625,2.28125 0,0.75 -0.28125,1.5 -0.5625,2.3125 -0.15625,0.421875 -0.46875,1.328125 -0.46875,2.015625 C 4.578125,0 4.609375,0 4.828125,0 h 1.59375 z m 0,0"
               id="id-5e972b9d-1ab9-4cb7-a90b-c97a6d9904f9" /></g><g
             id="id-e7043ec0-ec84-45a0-b478-3f9c4206dda8" /><g
             id="id-56d8cd1a-0541-4d6b-a24d-9e00de6836d4"><path
               d="m 3.046875,-2.671875 c -0.25,0.046875 -0.34375,0.234375 -0.34375,0.390625 0,0.1875 0.140625,0.265625 0.265625,0.265625 0.15625,0 0.390625,-0.109375 0.390625,-0.453125 0,-0.46875 -0.53125,-0.609375 -0.90625,-0.609375 -1.046875,0 -2.015625,0.96875 -2.015625,1.9375 0,0.59375 0.40625,1.203125 1.28125,1.203125 1.1875,0 1.734375,-0.6875 1.734375,-0.78125 0,-0.046875 -0.0625,-0.125 -0.125,-0.125 -0.03125,0 -0.046875,0.015625 -0.109375,0.078125 C 2.671875,-0.125 1.859375,-0.125 1.734375,-0.125 c -0.5,0 -0.71875,-0.34375 -0.71875,-0.78125 0,-0.1875 0.09375,-0.953125 0.453125,-1.4375 0.265625,-0.34375 0.625,-0.53125 0.984375,-0.53125 0.09375,0 0.421875,0.015625 0.59375,0.203125 z m 0,0"
               id="id-8a41b2e0-3779-42a6-8b4e-490026bd4fad" /></g><g
             id="id-33d132a5-8207-470c-a4dd-95687bb1cbd5"><path
               d="m 2.265625,-4.359375 c 0,-0.109375 -0.09375,-0.265625 -0.28125,-0.265625 -0.1875,0 -0.390625,0.1875 -0.390625,0.390625 0,0.109375 0.078125,0.265625 0.28125,0.265625 0.1875,0 0.390625,-0.203125 0.390625,-0.390625 z M 0.84375,-0.8125 c -0.03125,0.09375 -0.0625,0.171875 -0.0625,0.296875 0,0.328125 0.265625,0.578125 0.65625,0.578125 0.6875,0 1,-0.953125 1,-1.0625 0,-0.09375 -0.09375,-0.09375 -0.109375,-0.09375 -0.09375,0 -0.109375,0.046875 -0.140625,0.125 -0.15625,0.5625 -0.453125,0.84375 -0.734375,0.84375 -0.140625,0 -0.171875,-0.09375 -0.171875,-0.25 0,-0.15625 0.046875,-0.28125 0.109375,-0.4375 C 1.46875,-1 1.546875,-1.1875 1.609375,-1.375 1.671875,-1.546875 1.9375,-2.171875 1.953125,-2.265625 1.984375,-2.328125 2,-2.40625 2,-2.484375 2,-2.8125 1.71875,-3.078125 1.34375,-3.078125 0.640625,-3.078125 0.328125,-2.125 0.328125,-2 c 0,0.078125 0.09375,0.078125 0.125,0.078125 0.09375,0 0.09375,-0.03125 0.125,-0.109375 C 0.75,-2.625 1.0625,-2.875 1.3125,-2.875 c 0.109375,0 0.171875,0.046875 0.171875,0.234375 0,0.171875 -0.03125,0.265625 -0.203125,0.703125 z m 0,0"
               id="id-a0e9497b-a7b2-48ec-8509-fea42a28baaf" /></g><g
             id="id-bc258fc4-370d-4947-b6a3-66b91e029e9c" /><g
             id="id-52373ff4-d6e8-40f9-8751-9f948f42230a"><path
               d="m 4,2.25 c 0.046875,0.140625 0.09375,0.25 0.234375,0.25 0.109375,0 0.1875,-0.09375 0.1875,-0.203125 0,-0.03125 0,-0.046875 -0.046875,-0.15625 l -3.40625,-9.375 c -0.0625,-0.171875 -0.09375,-0.25 -0.21875,-0.25 -0.109375,0 -0.203125,0.09375 -0.203125,0.203125 0,0.03125 0,0.046875 0.046875,0.15625 z m 0,0"
               id="id-be1d9a90-1c13-4411-8d74-79c62da00d9f" /></g><g
             id="id-9f272abc-6ddc-4595-9a9e-80bcf39c5bea" /><g
             id="id-60d9f302-65c4-4552-80cf-8e49bfb42a67"><path
               d="m 1.578125,-0.78125 c -0.09375,0.390625 -0.109375,0.46875 -0.90625,0.46875 -0.15625,0 -0.265625,0 -0.265625,0.1875 C 0.40625,0 0.484375,0 0.671875,0 h 3.3125 c 2.0625,0 4.03125,-2.109375 4.03125,-4.28125 0,-1.40625 -0.84375,-2.53125 -2.34375,-2.53125 h -3.34375 c -0.1875,0 -0.296875,0 -0.296875,0.1875 0,0.125 0.078125,0.125 0.28125,0.125 0.125,0 0.3125,0.015625 0.421875,0.015625 0.171875,0.03125 0.21875,0.046875 0.21875,0.171875 0,0.03125 0,0.0625 -0.03125,0.1875 z M 3.734375,-6.125 C 3.828125,-6.46875 3.84375,-6.5 4.28125,-6.5 h 1.0625 c 0.96875,0 1.796875,0.53125 1.796875,1.84375 0,0.484375 -0.1875,2.125 -1.046875,3.21875 -0.28125,0.375 -1.0625,1.125 -2.296875,1.125 h -1.125 c -0.140625,0 -0.15625,0 -0.21875,0 -0.09375,-0.015625 -0.125,-0.03125 -0.125,-0.109375 0,-0.03125 0,-0.046875 0.046875,-0.21875 z m 0,0"
               id="id-8e89df1a-c600-487c-aed6-cff222300c82" /></g></g></defs><g
         fill="#000000"
         fill-opacity="1"
         id="id-2b8b54bc-dfc0-4bae-9dcc-f7c91d8182ee"
         transform="translate(-149.15,-127.281)"><g
           transform="translate(148.712,134.765)"
           id="g5245"><path
             d="M 6.75,-1.609375 H 6.5 c -0.046875,0.25 -0.09375,0.484375 -0.1875,0.71875 -0.046875,0.15625 -0.078125,0.25 -0.65625,0.25 H 4.859375 C 5,-1.203125 5.296875,-1.6875 5.75,-2.34375 c 0.46875,-0.703125 0.875,-1.390625 0.875,-2.1875 0,-1.375 -1.34375,-2.5 -3.03125,-2.5 -1.703125,0 -3.03125,1.140625 -3.03125,2.5 0,0.796875 0.40625,1.484375 0.875,2.1875 0.4375,0.65625 0.75,1.140625 0.890625,1.703125 H 1.53125 C 0.953125,-0.640625 0.921875,-0.734375 0.875,-0.875 0.78125,-1.109375 0.734375,-1.359375 0.6875,-1.609375 h -0.25 L 0.765625,0 h 1.59375 c 0.21875,0 0.25,0 0.25,-0.203125 0,-0.703125 -0.3125,-1.578125 -0.53125,-2.21875 -0.21875,-0.578125 -0.5,-1.359375 -0.5,-2.109375 0,-1.59375 1.109375,-2.28125 2.015625,-2.28125 0.953125,0 2.015625,0.71875 2.015625,2.28125 0,0.75 -0.28125,1.5 -0.5625,2.3125 -0.15625,0.421875 -0.46875,1.328125 -0.46875,2.015625 C 4.578125,0 4.609375,0 4.828125,0 h 1.59375 z m 0,0"
             id="id-8f1c481b-474b-4f93-aaf1-f59eb8333078" /></g></g><g
         fill="#000000"
         fill-opacity="1"
         id="id-331deba4-713d-4db5-9497-6d47627f19be"
         transform="translate(-149.15,-127.281)"><g
           transform="translate(155.908,131.149)"
           id="g5249"><path
             d="m 3.046875,-2.671875 c -0.25,0.046875 -0.34375,0.234375 -0.34375,0.390625 0,0.1875 0.140625,0.265625 0.265625,0.265625 0.15625,0 0.390625,-0.109375 0.390625,-0.453125 0,-0.46875 -0.53125,-0.609375 -0.90625,-0.609375 -1.046875,0 -2.015625,0.96875 -2.015625,1.9375 0,0.59375 0.40625,1.203125 1.28125,1.203125 1.1875,0 1.734375,-0.6875 1.734375,-0.78125 0,-0.046875 -0.0625,-0.125 -0.125,-0.125 -0.03125,0 -0.046875,0.015625 -0.109375,0.078125 C 2.671875,-0.125 1.859375,-0.125 1.734375,-0.125 c -0.5,0 -0.71875,-0.34375 -0.71875,-0.78125 0,-0.1875 0.09375,-0.953125 0.453125,-1.4375 0.265625,-0.34375 0.625,-0.53125 0.984375,-0.53125 0.09375,0 0.421875,0.015625 0.59375,0.203125 z m 0,0"
             id="id-94fbb608-b451-4aae-95d2-6cd4a9e93934" /></g></g><g
         fill="#000000"
         fill-opacity="1"
         id="id-225b1cdb-ea02-4fd7-8720-27a90cd531cd"
         transform="translate(-149.15,-127.281)"><g
           transform="translate(162.18,134.765)"
           id="g5253"><path
             d="m 4,2.25 c 0.046875,0.140625 0.09375,0.25 0.234375,0.25 0.109375,0 0.1875,-0.09375 0.1875,-0.203125 0,-0.03125 0,-0.046875 -0.046875,-0.15625 l -3.40625,-9.375 c -0.0625,-0.171875 -0.09375,-0.25 -0.21875,-0.25 -0.109375,0 -0.203125,0.09375 -0.203125,0.203125 0,0.03125 0,0.046875 0.046875,0.15625 z m 0,0"
             id="id-de16e5c2-95ea-465d-b555-58fbb3037bbd" /></g></g><g
         fill="#000000"
         fill-opacity="1"
         id="id-ad5615d9-fb11-4079-9dae-96e11fbc0fd8"
         transform="translate(-149.15,-127.281)"><g
           transform="translate(169.375,134.765)"
           id="g5257"><path
             d="m 1.578125,-0.78125 c -0.09375,0.390625 -0.109375,0.46875 -0.90625,0.46875 -0.15625,0 -0.265625,0 -0.265625,0.1875 C 0.40625,0 0.484375,0 0.671875,0 h 3.3125 c 2.0625,0 4.03125,-2.109375 4.03125,-4.28125 0,-1.40625 -0.84375,-2.53125 -2.34375,-2.53125 h -3.34375 c -0.1875,0 -0.296875,0 -0.296875,0.1875 0,0.125 0.078125,0.125 0.28125,0.125 0.125,0 0.3125,0.015625 0.421875,0.015625 0.171875,0.03125 0.21875,0.046875 0.21875,0.171875 0,0.03125 0,0.0625 -0.03125,0.1875 z M 3.734375,-6.125 C 3.828125,-6.46875 3.84375,-6.5 4.28125,-6.5 h 1.0625 c 0.96875,0 1.796875,0.53125 1.796875,1.84375 0,0.484375 -0.1875,2.125 -1.046875,3.21875 -0.28125,0.375 -1.0625,1.125 -2.296875,1.125 h -1.125 c -0.140625,0 -0.15625,0 -0.21875,0 -0.09375,-0.015625 -0.125,-0.03125 -0.125,-0.109375 0,-0.03125 0,-0.046875 0.046875,-0.21875 z m 0,0"
             id="id-a6b71718-1f18-470b-b701-58bb37f7baaa" /></g></g><g
         fill="#000000"
         fill-opacity="1"
         id="id-d9dfc4a2-0330-4940-97d7-e1d179e1b97d"
         transform="translate(-149.15,-127.281)"><g
           transform="translate(177.623,136.259)"
           id="g5261"><path
             d="m 2.265625,-4.359375 c 0,-0.109375 -0.09375,-0.265625 -0.28125,-0.265625 -0.1875,0 -0.390625,0.1875 -0.390625,0.390625 0,0.109375 0.078125,0.265625 0.28125,0.265625 0.1875,0 0.390625,-0.203125 0.390625,-0.390625 z M 0.84375,-0.8125 c -0.03125,0.09375 -0.0625,0.171875 -0.0625,0.296875 0,0.328125 0.265625,0.578125 0.65625,0.578125 0.6875,0 1,-0.953125 1,-1.0625 0,-0.09375 -0.09375,-0.09375 -0.109375,-0.09375 -0.09375,0 -0.109375,0.046875 -0.140625,0.125 -0.15625,0.5625 -0.453125,0.84375 -0.734375,0.84375 -0.140625,0 -0.171875,-0.09375 -0.171875,-0.25 0,-0.15625 0.046875,-0.28125 0.109375,-0.4375 C 1.46875,-1 1.546875,-1.1875 1.609375,-1.375 1.671875,-1.546875 1.9375,-2.171875 1.953125,-2.265625 1.984375,-2.328125 2,-2.40625 2,-2.484375 2,-2.8125 1.71875,-3.078125 1.34375,-3.078125 0.640625,-3.078125 0.328125,-2.125 0.328125,-2 c 0,0.078125 0.09375,0.078125 0.125,0.078125 0.09375,0 0.09375,-0.03125 0.125,-0.109375 C 0.75,-2.625 1.0625,-2.875 1.3125,-2.875 c 0.109375,0 0.171875,0.046875 0.171875,0.234375 0,0.171875 -0.03125,0.265625 -0.203125,0.703125 z m 0,0"
             id="id-204f643e-24a7-4c98-8a46-d0607f4ae112" /></g></g></g><g
       transform="matrix(0.41383199,0,0,0.41383199,119.33864,22.611711)"
       ns2:version="1.8.2"
       ns2:texconverter="pdflatex"
       ns2:pdfconverter="inkscape"
       ns2:text="$\\Omega_i^+$"
       ns2:preamble="/home/kyrem1/.config/inkscape/extensions/textext/default_packages.tex"
       ns2:scale="1.0"
       ns2:alignment="middle center"
       ns2:stroke-to-path="0"
       ns2:inkscapeversion="1.2.2"
       ns2:jacobian_sqrt="0.352778"
       id="g73587"><defs
         id="id-e1cb878e-a1d0-46ad-9cc6-1acc15b058a9"><g
           id="id-1609f29a-94ca-4fe4-98a7-9e8a0755ba8e"><g
             id="id-591ae65b-07ab-4c52-a528-9470135a6875" /><g
             id="id-b228a5ed-e5c4-4620-a39b-d0ad2bbcff18"><path
               d="M 6.75,-1.609375 H 6.5 c -0.046875,0.25 -0.09375,0.484375 -0.1875,0.71875 -0.046875,0.15625 -0.078125,0.25 -0.65625,0.25 H 4.859375 C 5,-1.203125 5.296875,-1.6875 5.75,-2.34375 c 0.46875,-0.703125 0.875,-1.390625 0.875,-2.1875 0,-1.375 -1.34375,-2.5 -3.03125,-2.5 -1.703125,0 -3.03125,1.140625 -3.03125,2.5 0,0.796875 0.40625,1.484375 0.875,2.1875 0.4375,0.65625 0.75,1.140625 0.890625,1.703125 H 1.53125 C 0.953125,-0.640625 0.921875,-0.734375 0.875,-0.875 0.78125,-1.109375 0.734375,-1.359375 0.6875,-1.609375 h -0.25 L 0.765625,0 h 1.59375 c 0.21875,0 0.25,0 0.25,-0.203125 0,-0.703125 -0.3125,-1.578125 -0.53125,-2.21875 -0.21875,-0.578125 -0.5,-1.359375 -0.5,-2.109375 0,-1.59375 1.109375,-2.28125 2.015625,-2.28125 0.953125,0 2.015625,0.71875 2.015625,2.28125 0,0.75 -0.28125,1.5 -0.5625,2.3125 -0.15625,0.421875 -0.46875,1.328125 -0.46875,2.015625 C 4.578125,0 4.609375,0 4.828125,0 h 1.59375 z m 0,0"
               id="id-d2ce44fb-19f5-4d6c-9f94-aeb6be8aac5a" /></g><g
             id="id-761b4cde-7da7-4b63-baeb-a4660692b4f9" /><g
             id="id-4d60acff-785e-4f69-aef1-573b020268a2"><path
               d="m 3.21875,-1.578125 h 2.140625 c 0.09375,0 0.25,0 0.25,-0.15625 0,-0.1875 -0.15625,-0.1875 -0.25,-0.1875 H 3.21875 V -4.0625 c 0,-0.078125 0,-0.25 -0.15625,-0.25 -0.171875,0 -0.171875,0.15625 -0.171875,0.25 v 2.140625 H 0.75 c -0.09375,0 -0.265625,0 -0.265625,0.171875 0,0.171875 0.15625,0.171875 0.265625,0.171875 H 2.890625 V 0.5625 c 0,0.09375 0,0.265625 0.15625,0.265625 0.171875,0 0.171875,-0.171875 0.171875,-0.265625 z m 0,0"
               id="id-60c2deaa-da40-47e5-a4cd-e0ef35a85365" /></g><g
             id="id-9301c28e-b28f-4bcf-8d80-be0de5338b56" /><g
             id="id-c4b08a74-2cba-4c9a-a062-b2ea08450931"><path
               d="m 2.265625,-4.359375 c 0,-0.109375 -0.09375,-0.265625 -0.28125,-0.265625 -0.1875,0 -0.390625,0.1875 -0.390625,0.390625 0,0.109375 0.078125,0.265625 0.28125,0.265625 0.1875,0 0.390625,-0.203125 0.390625,-0.390625 z M 0.84375,-0.8125 c -0.03125,0.09375 -0.0625,0.171875 -0.0625,0.296875 0,0.328125 0.265625,0.578125 0.65625,0.578125 0.6875,0 1,-0.953125 1,-1.0625 0,-0.09375 -0.09375,-0.09375 -0.109375,-0.09375 -0.09375,0 -0.109375,0.046875 -0.140625,0.125 -0.15625,0.5625 -0.453125,0.84375 -0.734375,0.84375 -0.140625,0 -0.171875,-0.09375 -0.171875,-0.25 0,-0.15625 0.046875,-0.28125 0.109375,-0.4375 C 1.46875,-1 1.546875,-1.1875 1.609375,-1.375 1.671875,-1.546875 1.9375,-2.171875 1.953125,-2.265625 1.984375,-2.328125 2,-2.40625 2,-2.484375 2,-2.8125 1.71875,-3.078125 1.34375,-3.078125 0.640625,-3.078125 0.328125,-2.125 0.328125,-2 c 0,0.078125 0.09375,0.078125 0.125,0.078125 0.09375,0 0.09375,-0.03125 0.125,-0.109375 C 0.75,-2.625 1.0625,-2.875 1.3125,-2.875 c 0.109375,0 0.171875,0.046875 0.171875,0.234375 0,0.171875 -0.03125,0.265625 -0.203125,0.703125 z m 0,0"
               id="id-4d9dbe84-2ff9-492c-9591-8a3fd5c6a335" /></g></g></defs><g
         fill="#000000"
         fill-opacity="1"
         id="id-f9bcadf2-0bd5-4789-a419-f494ca6216f2"
         transform="translate(-149.15,-126.191)"><g
           transform="translate(148.712,134.765)"
           id="g73576"><path
             d="M 6.75,-1.609375 H 6.5 c -0.046875,0.25 -0.09375,0.484375 -0.1875,0.71875 -0.046875,0.15625 -0.078125,0.25 -0.65625,0.25 H 4.859375 C 5,-1.203125 5.296875,-1.6875 5.75,-2.34375 c 0.46875,-0.703125 0.875,-1.390625 0.875,-2.1875 0,-1.375 -1.34375,-2.5 -3.03125,-2.5 -1.703125,0 -3.03125,1.140625 -3.03125,2.5 0,0.796875 0.40625,1.484375 0.875,2.1875 0.4375,0.65625 0.75,1.140625 0.890625,1.703125 H 1.53125 C 0.953125,-0.640625 0.921875,-0.734375 0.875,-0.875 0.78125,-1.109375 0.734375,-1.359375 0.6875,-1.609375 h -0.25 L 0.765625,0 h 1.59375 c 0.21875,0 0.25,0 0.25,-0.203125 0,-0.703125 -0.3125,-1.578125 -0.53125,-2.21875 -0.21875,-0.578125 -0.5,-1.359375 -0.5,-2.109375 0,-1.59375 1.109375,-2.28125 2.015625,-2.28125 0.953125,0 2.015625,0.71875 2.015625,2.28125 0,0.75 -0.28125,1.5 -0.5625,2.3125 -0.15625,0.421875 -0.46875,1.328125 -0.46875,2.015625 C 4.578125,0 4.609375,0 4.828125,0 h 1.59375 z m 0,0"
             id="id-6d66425e-5f3b-4b1a-a812-a2da544dca73" /></g></g><g
         fill="#000000"
         fill-opacity="1"
         id="id-8bf3df28-e702-4535-90fd-250dbb64dc44"
         transform="translate(-149.15,-126.191)"><g
           transform="translate(155.908,130.503)"
           id="g73580"><path
             d="m 3.21875,-1.578125 h 2.140625 c 0.09375,0 0.25,0 0.25,-0.15625 0,-0.1875 -0.15625,-0.1875 -0.25,-0.1875 H 3.21875 V -4.0625 c 0,-0.078125 0,-0.25 -0.15625,-0.25 -0.171875,0 -0.171875,0.15625 -0.171875,0.25 v 2.140625 H 0.75 c -0.09375,0 -0.265625,0 -0.265625,0.171875 0,0.171875 0.15625,0.171875 0.265625,0.171875 H 2.890625 V 0.5625 c 0,0.09375 0,0.265625 0.15625,0.265625 0.171875,0 0.171875,-0.171875 0.171875,-0.265625 z m 0,0"
             id="id-cdda282e-c1d5-40ee-bef4-2eed648384a7" /></g></g><g
         fill="#000000"
         fill-opacity="1"
         id="id-5f8796a3-2474-41d9-a7e8-c9b3b2502ee3"
         transform="translate(-149.15,-126.191)"><g
           transform="translate(155.908,137.542)"
           id="g73584"><path
             d="m 2.265625,-4.359375 c 0,-0.109375 -0.09375,-0.265625 -0.28125,-0.265625 -0.1875,0 -0.390625,0.1875 -0.390625,0.390625 0,0.109375 0.078125,0.265625 0.28125,0.265625 0.1875,0 0.390625,-0.203125 0.390625,-0.390625 z M 0.84375,-0.8125 c -0.03125,0.09375 -0.0625,0.171875 -0.0625,0.296875 0,0.328125 0.265625,0.578125 0.65625,0.578125 0.6875,0 1,-0.953125 1,-1.0625 0,-0.09375 -0.09375,-0.09375 -0.109375,-0.09375 -0.09375,0 -0.109375,0.046875 -0.140625,0.125 -0.15625,0.5625 -0.453125,0.84375 -0.734375,0.84375 -0.140625,0 -0.171875,-0.09375 -0.171875,-0.25 0,-0.15625 0.046875,-0.28125 0.109375,-0.4375 C 1.46875,-1 1.546875,-1.1875 1.609375,-1.375 1.671875,-1.546875 1.9375,-2.171875 1.953125,-2.265625 1.984375,-2.328125 2,-2.40625 2,-2.484375 2,-2.8125 1.71875,-3.078125 1.34375,-3.078125 0.640625,-3.078125 0.328125,-2.125 0.328125,-2 c 0,0.078125 0.09375,0.078125 0.125,0.078125 0.09375,0 0.09375,-0.03125 0.125,-0.109375 C 0.75,-2.625 1.0625,-2.875 1.3125,-2.875 c 0.109375,0 0.171875,0.046875 0.171875,0.234375 0,0.171875 -0.03125,0.265625 -0.203125,0.703125 z m 0,0"
             id="id-38e7fff8-ce5f-44fd-a7ba-0616c62b2874" /></g></g></g><path
       style="fill:none;stroke:#000000;stroke-width:0.255;stroke-dasharray:0.255, 0.765;marker-start:url(#Arrow1L);marker-end:url(#marker6133)"
       d="m 142.76491,46.011225 c 0,0 -15.78992,-5.279373 -21.33089,-17.105996"
       id="path5422"
       sodipodi:nodetypes="cc" /><path
       style="fill:none;stroke:#000000;stroke-width:0.255;stroke-dasharray:0.255, 0.765;marker-start:url(#marker6181);marker-end:url(#marker6225)"
       d="m 147.06541,43.075989 c 0,0 1.94048,-10.998862 -1.1735,-30.171485"
       id="path6177" /><g
       inkscape:label="Layer 1"
       id="layer1-5"
       transform="translate(3.53416,-2.59997)"><ellipse
         style="fill:none;fill-rule:evenodd;stroke:#1a1a1a;stroke-width:0.555;stroke-dasharray:none;stroke-dashoffset:0.4665"
         id="path50003-3"
         cx="42.302826"
         cy="48.44767"
         rx="39.010029"
         ry="20.892906" /><g
         transform="matrix(0.352778,0,0,0.352778,38.926759,46.07831)"
         ns2:version="1.8.2"
         ns2:texconverter="pdflatex"
         ns2:pdfconverter="inkscape"
         ns2:text="$\\Omega$"
         ns2:preamble="/home/kyrem1/.config/inkscape/extensions/textext/default_packages.tex"
         ns2:scale="1.0"
         ns2:alignment="middle center"
         ns2:stroke-to-path="0"
         ns2:jacobian_sqrt="0.352778"
         id="g52083"><defs
           id="id-eec7aeb5-d4e5-4589-9c72-96ba052abbe6"><g
             id="g12828"><g
               id="g12822" /><g
               id="g12826"><path
                 d="M 6.75,-1.609375 H 6.5 c -0.046875,0.25 -0.09375,0.484375 -0.1875,0.71875 -0.046875,0.15625 -0.078125,0.25 -0.65625,0.25 H 4.859375 C 5,-1.203125 5.296875,-1.6875 5.75,-2.34375 c 0.46875,-0.703125 0.875,-1.390625 0.875,-2.1875 0,-1.375 -1.34375,-2.5 -3.03125,-2.5 -1.703125,0 -3.03125,1.140625 -3.03125,2.5 0,0.796875 0.40625,1.484375 0.875,2.1875 0.4375,0.65625 0.75,1.140625 0.890625,1.703125 H 1.53125 C 0.953125,-0.640625 0.921875,-0.734375 0.875,-0.875 0.78125,-1.109375 0.734375,-1.359375 0.6875,-1.609375 h -0.25 L 0.765625,0 h 1.59375 c 0.21875,0 0.25,0 0.25,-0.203125 0,-0.703125 -0.3125,-1.578125 -0.53125,-2.21875 -0.21875,-0.578125 -0.5,-1.359375 -0.5,-2.109375 0,-1.59375 1.109375,-2.28125 2.015625,-2.28125 0.953125,0 2.015625,0.71875 2.015625,2.28125 0,0.75 -0.28125,1.5 -0.5625,2.3125 -0.15625,0.421875 -0.46875,1.328125 -0.46875,2.015625 C 4.578125,0 4.609375,0 4.828125,0 h 1.59375 z m 0,0"
                 id="path12824" /></g></g></defs><g
           fill="#000000"
           fill-opacity="1"
           id="id-59e39dcc-58b0-46c9-8e17-8dcfb8a6a37b"
           transform="translate(-149.15,-127.734)"><g
             transform="translate(148.712,134.765)"
             id="g52080"><path
               d="M 6.75,-1.609375 H 6.5 c -0.046875,0.25 -0.09375,0.484375 -0.1875,0.71875 -0.046875,0.15625 -0.078125,0.25 -0.65625,0.25 H 4.859375 C 5,-1.203125 5.296875,-1.6875 5.75,-2.34375 c 0.46875,-0.703125 0.875,-1.390625 0.875,-2.1875 0,-1.375 -1.34375,-2.5 -3.03125,-2.5 -1.703125,0 -3.03125,1.140625 -3.03125,2.5 0,0.796875 0.40625,1.484375 0.875,2.1875 0.4375,0.65625 0.75,1.140625 0.890625,1.703125 H 1.53125 C 0.953125,-0.640625 0.921875,-0.734375 0.875,-0.875 0.78125,-1.109375 0.734375,-1.359375 0.6875,-1.609375 h -0.25 L 0.765625,0 h 1.59375 c 0.21875,0 0.25,0 0.25,-0.203125 0,-0.703125 -0.3125,-1.578125 -0.53125,-2.21875 -0.21875,-0.578125 -0.5,-1.359375 -0.5,-2.109375 0,-1.59375 1.109375,-2.28125 2.015625,-2.28125 0.953125,0 2.015625,0.71875 2.015625,2.28125 0,0.75 -0.28125,1.5 -0.5625,2.3125 -0.15625,0.421875 -0.46875,1.328125 -0.46875,2.015625 C 4.578125,0 4.609375,0 4.828125,0 h 1.59375 z m 0,0"
               id="id-f5605f2e-140a-458e-ae52-e49cc0b9f1a1" /></g></g></g><g
         transform="matrix(0.352778,0,0,0.352778,25.717475,15.242226)"
         ns2:version="1.8.2"
         ns2:texconverter="pdflatex"
         ns2:pdfconverter="inkscape"
         ns2:text="$\\Omega^c$"
         ns2:preamble="/home/kyrem1/.config/inkscape/extensions/textext/default_packages.tex"
         ns2:scale="1.0"
         ns2:alignment="middle center"
         ns2:stroke-to-path="0"
         ns2:inkscapeversion="1.2.2"
         ns2:jacobian_sqrt="0.352778"
         id="g79255"><defs
           id="id-67716b48-6b2b-4659-967e-dff4d7a6dff3"><g
             id="g12847"><g
               id="g12835" /><g
               id="g12839"><path
                 d="M 6.75,-1.609375 H 6.5 c -0.046875,0.25 -0.09375,0.484375 -0.1875,0.71875 -0.046875,0.15625 -0.078125,0.25 -0.65625,0.25 H 4.859375 C 5,-1.203125 5.296875,-1.6875 5.75,-2.34375 c 0.46875,-0.703125 0.875,-1.390625 0.875,-2.1875 0,-1.375 -1.34375,-2.5 -3.03125,-2.5 -1.703125,0 -3.03125,1.140625 -3.03125,2.5 0,0.796875 0.40625,1.484375 0.875,2.1875 0.4375,0.65625 0.75,1.140625 0.890625,1.703125 H 1.53125 C 0.953125,-0.640625 0.921875,-0.734375 0.875,-0.875 0.78125,-1.109375 0.734375,-1.359375 0.6875,-1.609375 h -0.25 L 0.765625,0 h 1.59375 c 0.21875,0 0.25,0 0.25,-0.203125 0,-0.703125 -0.3125,-1.578125 -0.53125,-2.21875 -0.21875,-0.578125 -0.5,-1.359375 -0.5,-2.109375 0,-1.59375 1.109375,-2.28125 2.015625,-2.28125 0.953125,0 2.015625,0.71875 2.015625,2.28125 0,0.75 -0.28125,1.5 -0.5625,2.3125 -0.15625,0.421875 -0.46875,1.328125 -0.46875,2.015625 C 4.578125,0 4.609375,0 4.828125,0 h 1.59375 z m 0,0"
                 id="path12837" /></g><g
               id="g12841" /><g
               id="g12845"><path
                 d="m 3.046875,-2.671875 c -0.25,0.046875 -0.34375,0.234375 -0.34375,0.390625 0,0.1875 0.140625,0.265625 0.265625,0.265625 0.15625,0 0.390625,-0.109375 0.390625,-0.453125 0,-0.46875 -0.53125,-0.609375 -0.90625,-0.609375 -1.046875,0 -2.015625,0.96875 -2.015625,1.9375 0,0.59375 0.40625,1.203125 1.28125,1.203125 1.1875,0 1.734375,-0.6875 1.734375,-0.78125 0,-0.046875 -0.0625,-0.125 -0.125,-0.125 -0.03125,0 -0.046875,0.015625 -0.109375,0.078125 C 2.671875,-0.125 1.859375,-0.125 1.734375,-0.125 c -0.5,0 -0.71875,-0.34375 -0.71875,-0.78125 0,-0.1875 0.09375,-0.953125 0.453125,-1.4375 0.265625,-0.34375 0.625,-0.53125 0.984375,-0.53125 0.09375,0 0.421875,0.015625 0.59375,0.203125 z m 0,0"
                 id="path12843" /></g></g></defs><g
           fill="#000000"
           fill-opacity="1"
           id="id-903e63f6-55eb-4add-b51e-eb5c711a2482"
           transform="translate(-149.15,-127.734)"><g
             transform="translate(148.712,134.765)"
             id="g79248"><path
               d="M 6.75,-1.609375 H 6.5 c -0.046875,0.25 -0.09375,0.484375 -0.1875,0.71875 -0.046875,0.15625 -0.078125,0.25 -0.65625,0.25 H 4.859375 C 5,-1.203125 5.296875,-1.6875 5.75,-2.34375 c 0.46875,-0.703125 0.875,-1.390625 0.875,-2.1875 0,-1.375 -1.34375,-2.5 -3.03125,-2.5 -1.703125,0 -3.03125,1.140625 -3.03125,2.5 0,0.796875 0.40625,1.484375 0.875,2.1875 0.4375,0.65625 0.75,1.140625 0.890625,1.703125 H 1.53125 C 0.953125,-0.640625 0.921875,-0.734375 0.875,-0.875 0.78125,-1.109375 0.734375,-1.359375 0.6875,-1.609375 h -0.25 L 0.765625,0 h 1.59375 c 0.21875,0 0.25,0 0.25,-0.203125 0,-0.703125 -0.3125,-1.578125 -0.53125,-2.21875 -0.21875,-0.578125 -0.5,-1.359375 -0.5,-2.109375 0,-1.59375 1.109375,-2.28125 2.015625,-2.28125 0.953125,0 2.015625,0.71875 2.015625,2.28125 0,0.75 -0.28125,1.5 -0.5625,2.3125 -0.15625,0.421875 -0.46875,1.328125 -0.46875,2.015625 C 4.578125,0 4.609375,0 4.828125,0 h 1.59375 z m 0,0"
               id="id-63c2f4c6-827b-44e1-84a0-408e09633141" /></g></g><g
           fill="#000000"
           fill-opacity="1"
           id="id-93919a63-e982-4e92-be4a-bc5378e6dea0"
           transform="translate(-149.15,-127.734)"><g
             transform="translate(155.908,131.149)"
             id="g79252"><path
               d="m 3.046875,-2.671875 c -0.25,0.046875 -0.34375,0.234375 -0.34375,0.390625 0,0.1875 0.140625,0.265625 0.265625,0.265625 0.15625,0 0.390625,-0.109375 0.390625,-0.453125 0,-0.46875 -0.53125,-0.609375 -0.90625,-0.609375 -1.046875,0 -2.015625,0.96875 -2.015625,1.9375 0,0.59375 0.40625,1.203125 1.28125,1.203125 1.1875,0 1.734375,-0.6875 1.734375,-0.78125 0,-0.046875 -0.0625,-0.125 -0.125,-0.125 -0.03125,0 -0.046875,0.015625 -0.109375,0.078125 C 2.671875,-0.125 1.859375,-0.125 1.734375,-0.125 c -0.5,0 -0.71875,-0.34375 -0.71875,-0.78125 0,-0.1875 0.09375,-0.953125 0.453125,-1.4375 0.265625,-0.34375 0.625,-0.53125 0.984375,-0.53125 0.09375,0 0.421875,0.015625 0.59375,0.203125 z m 0,0"
               id="id-7ff206bd-d7ed-41c3-9e07-5ef3ed2e081e" /></g></g></g><path
         style="opacity:1;fill:none;stroke:#000000;stroke-width:0.255;stroke-dasharray:0.255, 0.765;stroke-dashoffset:0;marker-start:url(#Arrow2);marker-end:url(#Arrow2)"
         d="m 29.459942,19.652165 c 0,0 9.500644,9.766673 10.274142,23.211036"
         id="path79274"
         sodipodi:nodetypes="cc" /><g
         transform="matrix(1.41111,0,0,1.41111,85.009827,47.190573)"
         ns2:version="1.8.2"
         ns2:texconverter="pdflatex"
         ns2:pdfconverter="inkscape"
         ns2:text="$=$"
         ns2:preamble="/home/kyrem1/.config/inkscape/extensions/textext/default_packages.tex"
         ns2:scale="4.0"
         ns2:alignment="middle center"
         ns2:stroke-to-path="0"
         ns2:inkscapeversion="1.2.2"
         ns2:jacobian_sqrt="1.41111"
         id="g13674"><defs
   id="id-c015b5a9-6e27-4f18-b294-c30b3c8201c7">
    <g
   id="id-6b5d2dd2-de66-4f03-9635-9a2e8424e581">
      <g
   id="id-d8fc2563-b486-4863-b8a6-2f89007a535a" />
      <g
   id="id-5d54bea1-9174-46be-aba3-3f1eaddb7b93">
        <path
   d="m 6.84375,-3.265625 c 0.15625,0 0.34375,0 0.34375,-0.1875 C 7.1875,-3.65625 7,-3.65625 6.859375,-3.65625 h -5.96875 c -0.140625,0 -0.328125,0 -0.328125,0.203125 0,0.1875 0.1875,0.1875 0.328125,0.1875 z m 0.015625,1.9375 c 0.140625,0 0.328125,0 0.328125,-0.203125 0,-0.1875 -0.1875,-0.1875 -0.34375,-0.1875 H 0.890625 c -0.140625,0 -0.328125,0 -0.328125,0.1875 0,0.203125 0.1875,0.203125 0.328125,0.203125 z m 0,0"
   id="id-bd12080c-84ac-4495-a95c-d344afbbf593" />
      </g>
    </g>
  </defs>
  <g
   fill="#000000"
   fill-opacity="1"
   id="id-ca6292fc-1743-499a-aeaa-3688b5d75d70"
   transform="translate(-149.275,-131.109)">
    <g
   transform="translate(148.712,134.765)"
   id="g13671"><path
   d="m 6.84375,-3.265625 c 0.15625,0 0.34375,0 0.34375,-0.1875 C 7.1875,-3.65625 7,-3.65625 6.859375,-3.65625 h -5.96875 c -0.140625,0 -0.328125,0 -0.328125,0.203125 0,0.1875 0.1875,0.1875 0.328125,0.1875 z m 0.015625,1.9375 c 0.140625,0 0.328125,0 0.328125,-0.203125 0,-0.1875 -0.1875,-0.1875 -0.34375,-0.1875 H 0.890625 c -0.140625,0 -0.328125,0 -0.328125,0.1875 0,0.203125 0.1875,0.203125 0.328125,0.203125 z m 0,0"
   id="id-c7f97824-e2c9-4c09-b7c6-346b8ac4c15c" />
      </g></g>
</g><g
         transform="matrix(1.05833,0,0,1.05833,131.51134,34.273284)"
         ns2:version="1.8.2"
         ns2:texconverter="pdflatex"
         ns2:pdfconverter="inkscape"
         ns2:text="$+$"
         ns2:preamble="/home/kyrem1/.config/inkscape/extensions/textext/default_packages.tex"
         ns2:scale="3.0"
         ns2:alignment="middle center"
         ns2:stroke-to-path="0"
         ns2:inkscapeversion="1.2.2"
         ns2:jacobian_sqrt="1.05833"
         id="g14081"><defs
   id="id-61f6b68e-bdf0-4bb5-854b-d3b0d385917f">
    <g
   id="id-70f6081d-2ddc-419c-8f9a-358fbbd5dbfd">
      <g
   id="id-309d3143-f04e-4713-88ba-5e377fd30b2d" />
      <g
   id="id-b6877eed-5070-4fed-82ae-26d3691294d0">
        <path
   d="m 4.078125,-2.296875 h 2.78125 C 7,-2.296875 7.1875,-2.296875 7.1875,-2.5 7.1875,-2.6875 7,-2.6875 6.859375,-2.6875 h -2.78125 v -2.796875 c 0,-0.140625 0,-0.328125 -0.203125,-0.328125 -0.203125,0 -0.203125,0.1875 -0.203125,0.328125 V -2.6875 h -2.78125 c -0.140625,0 -0.328125,0 -0.328125,0.1875 0,0.203125 0.1875,0.203125 0.328125,0.203125 h 2.78125 V 0.5 c 0,0.140625 0,0.328125 0.203125,0.328125 0.203125,0 0.203125,-0.1875 0.203125,-0.328125 z m 0,0"
   id="id-1f389b9e-8170-4db7-939b-9588cd1a75db" />
      </g>
    </g>
  </defs>
  <g
   fill="#000000"
   fill-opacity="1"
   id="id-75b5151a-bc72-4a12-81a8-c5177a28c278"
   transform="translate(-149.275,-128.952)">
    <g
   transform="translate(148.712,134.765)"
   id="g14078"><path
   d="m 4.078125,-2.296875 h 2.78125 C 7,-2.296875 7.1875,-2.296875 7.1875,-2.5 7.1875,-2.6875 7,-2.6875 6.859375,-2.6875 h -2.78125 v -2.796875 c 0,-0.140625 0,-0.328125 -0.203125,-0.328125 -0.203125,0 -0.203125,0.1875 -0.203125,0.328125 V -2.6875 h -2.78125 c -0.140625,0 -0.328125,0 -0.328125,0.1875 0,0.203125 0.1875,0.203125 0.328125,0.203125 h 2.78125 V 0.5 c 0,0.140625 0,0.328125 0.203125,0.328125 0.203125,0 0.203125,-0.1875 0.203125,-0.328125 z m 0,0"
   id="id-93690e29-bc7f-4579-8669-b36313cdda79" />
      </g></g>
</g></g></g></svg>
