<?xml version="1.0" encoding="UTF-8" standalone="no"?>
<!-- Created with Inkscape (http://www.inkscape.org/) -->

<svg
   width="210mm"
   height="297mm"
   viewBox="0 0 210 297"
   version="1.1"
   id="svg5"
   sodipodi:docname="interactions.svg"
   inkscape:version="1.2.2 (b0a8486541, 2022-12-01)"
   xmlns:inkscape="http://www.inkscape.org/namespaces/inkscape"
   xmlns:sodipodi="http://sodipodi.sourceforge.net/DTD/sodipodi-0.dtd"
   xmlns="http://www.w3.org/2000/svg"
   xmlns:svg="http://www.w3.org/2000/svg"
   xmlns:ns2="http://www.iki.fi/pav/software/textext/">
  <sodipodi:namedview
     id="namedview7"
     pagecolor="#ffffff"
     bordercolor="#000000"
     borderopacity="0.25"
     inkscape:showpageshadow="2"
     inkscape:pageopacity="0.0"
     inkscape:pagecheckerboard="0"
     inkscape:deskcolor="#d1d1d1"
     inkscape:document-units="mm"
     showgrid="false"
     inkscape:zoom="2.2601823"
     inkscape:cx="402.17995"
     inkscape:cy="568.31699"
     inkscape:window-width="1920"
     inkscape:window-height="1080"
     inkscape:window-x="0"
     inkscape:window-y="0"
     inkscape:window-maximized="1"
     inkscape:current-layer="layer1" />
  <defs
     id="defs2">
    <marker
       style="overflow:visible"
       id="marker5669-7"
       refX="0"
       refY="0"
       orient="auto-start-reverse"
       inkscape:stockid="Arrow2"
       markerWidth="2.3"
       markerHeight="1.6727272"
       viewBox="0 0 7.7 5.6"
       inkscape:isstock="true"
       inkscape:collect="always"
       preserveAspectRatio="xMidYMid"
       markerUnits="userSpaceOnUse">
      <path
         transform="scale(0.7)"
         d="M -2,-4 9,0 -2,4 c 2,-2.33 2,-5.66 0,-8 z"
         style="fill:context-stroke;fill-rule:evenodd;stroke:none"
         id="path5667-5" />
    </marker>
  </defs>
  <g
     inkscape:label="Layer 1"
     inkscape:groupmode="layer"
     id="layer1">
    <path
       style="fill:#ececec;fill-rule:evenodd;stroke:#808080;stroke-width:0.281749;stroke-dasharray:none;stroke-dashoffset:3.5263"
       d="m 37.047168,163.88556 c 1.146525,-3.00259 4.573372,-9.19647 8.587911,-4.73225 2.466642,2.04113 6.157715,5.06957 9.756519,3.11417 3.176628,-1.10312 6.254892,-5.96856 9.784257,-3.05229 2.171398,2.82084 6.190385,3.95981 8.910659,0.99411 4.211368,-2.30543 5.895394,1.33292 8.996775,2.45996 4.00192,0.45884 7.533445,-3.32365 10.121213,0.87295 1.965053,3.18674 5.631957,-2.79656 9.308908,-1.99475 4.05709,-0.68629 4.89172,4.73737 8.86837,4.59914 3.99083,0.2753 9.24382,-7.97857 10.17271,-3.49048 0.98829,4.77512 6.20606,2.57155 8.58926,0.51722 3.67326,-3.15015 7.17691,0.79675 8.85067,3.50485 2.00871,2.78183 5.35695,5.19816 5.05341,8.81295 0.33257,7.25832 -4.85577,13.68674 -10.54993,18.63304 -4.93891,3.09925 -10.80506,1.03054 -16.48186,0.92144 -3.9256,-0.0755 -7.71076,0.65288 -11.48884,0.33904 -3.19076,-0.26506 -5.55348,-1.30864 -9.745117,-1.14151 -3.596566,0.0822 -7.201755,0.50346 -10.828117,0.55522 -4.004121,0.26777 -8.091296,0.13995 -11.937448,-0.767 -3.557333,-0.83884 -6.9016,-2.06297 -10.294375,-3.30403 -4.073882,-1.17918 -7.96253,-2.49719 -11.747567,-4.29025 -3.835005,-1.81674 -8.213108,-3.47848 -10.272054,-7.05878 -2.542512,-3.52319 -2.856306,-7.72699 -3.875042,-11.67794 -0.347781,-1.3488 -0.05903,-2.5656 0.219688,-3.81481 z"
       id="path15495"
       sodipodi:nodetypes="sscsscsscssscssscsscssss" />
    <path
       style="fill:none;fill-rule:evenodd;stroke:#000000;stroke-width:0.752435;stroke-dasharray:none"
       d="m 51.625088,142.89251 c 43.416094,-17.50824 3.068132,-45.969773 44.153488,-17.77722 41.085354,28.19255 26.920044,42.43317 26.920044,42.43317 0,0 -29.620527,18.03064 -54.129327,16.42326 -24.508796,-1.60739 -16.944205,-41.07921 -16.944205,-41.07921 z"
       id="path113" />
    <g
       transform="matrix(0.50520208,0,0,0.5883529,74.814885,170.38371)"
       ns2:version="1.8.2"
       ns2:texconverter="pdflatex"
       ns2:pdfconverter="inkscape"
       ns2:text="$E^\\prime$"
       ns2:preamble="/home/kyrem1/.config/inkscape/extensions/textext/default_packages.tex"
       ns2:scale="1.0"
       ns2:alignment="middle center"
       ns2:stroke-to-path="0"
       ns2:jacobian_sqrt="0.352778"
       id="g890"
       style="stroke:none;stroke-width:1.00006;stroke-dasharray:none">
      <defs
         id="id-6aed5ada-3f73-4428-9952-0f3380829501">
        <g
           id="id-d26920c1-ffa2-46e9-91c9-1646741e7062">
          <g
             id="id-017886fc-7ddd-4ea4-aff8-e30c7f6c14ca" />
          <g
             id="id-e8005c7d-ab2b-41e7-b535-098a777390b2">
            <path
               d="M 7.0625,-2.328125 C 7.078125,-2.375 7.109375,-2.4375 7.109375,-2.46875 c 0,0 0,-0.109375 -0.125,-0.109375 -0.09375,0 -0.109375,0.0625 -0.125,0.125 C 6.203125,-0.984375 5.84375,-0.3125 4.140625,-0.3125 H 2.6875 c -0.140625,0 -0.171875,0 -0.21875,0 -0.109375,-0.015625 -0.140625,-0.03125 -0.140625,-0.109375 0,-0.03125 0,-0.046875 0.046875,-0.21875 L 3.0625,-3.375 h 0.984375 c 0.84375,0 0.84375,0.21875 0.84375,0.46875 0,0.0625 0,0.1875 -0.0625,0.484375 C 4.8125,-2.375 4.796875,-2.34375 4.796875,-2.3125 c 0,0.046875 0.03125,0.109375 0.125,0.109375 C 5,-2.203125 5.03125,-2.25 5.078125,-2.40625 l 0.5625,-2.328125 c 0,-0.0625 -0.046875,-0.109375 -0.125,-0.109375 -0.078125,0 -0.109375,0.0625 -0.125,0.171875 -0.21875,0.765625 -0.390625,1 -1.3125,1 h -0.9375 l 0.59375,-2.40625 C 3.828125,-6.4375 3.84375,-6.46875 4.28125,-6.46875 H 5.6875 c 1.203125,0 1.515625,0.28125 1.515625,1.109375 0,0.234375 0,0.25 -0.046875,0.53125 0,0.046875 -0.015625,0.125 -0.015625,0.171875 0,0.046875 0.03125,0.125 0.125,0.125 0.109375,0 0.125,-0.0625 0.140625,-0.25 L 7.609375,-6.515625 C 7.640625,-6.78125 7.59375,-6.78125 7.34375,-6.78125 H 2.296875 c -0.1875,0 -0.296875,0 -0.296875,0.203125 0,0.109375 0.09375,0.109375 0.28125,0.109375 0.375,0 0.65625,0 0.65625,0.171875 0,0.046875 0,0.0625 -0.0625,0.25 L 1.5625,-0.78125 c -0.09375,0.390625 -0.109375,0.46875 -0.90625,0.46875 -0.171875,0 -0.28125,0 -0.28125,0.1875 C 0.375,0 0.46875,0 0.65625,0 h 5.171875 c 0.234375,0 0.25,-0.015625 0.3125,-0.171875 z m 0,0"
               id="id-ca3e8ee7-f53c-4dad-a422-a981984bbeac" />
          </g>
          <g
             id="id-350a860b-86fc-4164-85c5-76bade72ff2b" />
          <g
             id="id-5f28b8c5-dcf7-493d-ae2f-5862f01362f5">
            <path
               d="m 2.015625,-3.296875 c 0.0625,-0.109375 0.0625,-0.171875 0.0625,-0.21875 0,-0.21875 -0.1875,-0.375 -0.40625,-0.375 -0.265625,0 -0.34375,0.21875 -0.375,0.328125 L 0.375,-0.546875 c -0.015625,0.015625 -0.046875,0.09375 -0.046875,0.109375 0,0.078125 0.21875,0.15625 0.28125,0.15625 0.046875,0 0.046875,-0.015625 0.09375,-0.125 z m 0,0"
               id="id-f62cdaf5-c516-4a65-a451-f9efd934334f" />
          </g>
        </g>
      </defs>
      <g
         fill="#000000"
         fill-opacity="1"
         id="id-dfc0b6ab-2cd9-4967-82fe-32df37c989e5"
         transform="translate(-149.087,-127.258)"
         style="stroke:none;stroke-width:1.00006;stroke-dasharray:none">
        <g
           transform="translate(148.712,134.765)"
           id="g883"
           style="stroke:none;stroke-width:1.00006;stroke-dasharray:none">
          <path
             d="M 7.0625,-2.328125 C 7.078125,-2.375 7.109375,-2.4375 7.109375,-2.46875 c 0,0 0,-0.109375 -0.125,-0.109375 -0.09375,0 -0.109375,0.0625 -0.125,0.125 C 6.203125,-0.984375 5.84375,-0.3125 4.140625,-0.3125 H 2.6875 c -0.140625,0 -0.171875,0 -0.21875,0 -0.109375,-0.015625 -0.140625,-0.03125 -0.140625,-0.109375 0,-0.03125 0,-0.046875 0.046875,-0.21875 L 3.0625,-3.375 h 0.984375 c 0.84375,0 0.84375,0.21875 0.84375,0.46875 0,0.0625 0,0.1875 -0.0625,0.484375 C 4.8125,-2.375 4.796875,-2.34375 4.796875,-2.3125 c 0,0.046875 0.03125,0.109375 0.125,0.109375 C 5,-2.203125 5.03125,-2.25 5.078125,-2.40625 l 0.5625,-2.328125 c 0,-0.0625 -0.046875,-0.109375 -0.125,-0.109375 -0.078125,0 -0.109375,0.0625 -0.125,0.171875 -0.21875,0.765625 -0.390625,1 -1.3125,1 h -0.9375 l 0.59375,-2.40625 C 3.828125,-6.4375 3.84375,-6.46875 4.28125,-6.46875 H 5.6875 c 1.203125,0 1.515625,0.28125 1.515625,1.109375 0,0.234375 0,0.25 -0.046875,0.53125 0,0.046875 -0.015625,0.125 -0.015625,0.171875 0,0.046875 0.03125,0.125 0.125,0.125 0.109375,0 0.125,-0.0625 0.140625,-0.25 L 7.609375,-6.515625 C 7.640625,-6.78125 7.59375,-6.78125 7.34375,-6.78125 H 2.296875 c -0.1875,0 -0.296875,0 -0.296875,0.203125 0,0.109375 0.09375,0.109375 0.28125,0.109375 0.375,0 0.65625,0 0.65625,0.171875 0,0.046875 0,0.0625 -0.0625,0.25 L 1.5625,-0.78125 c -0.09375,0.390625 -0.109375,0.46875 -0.90625,0.46875 -0.171875,0 -0.28125,0 -0.28125,0.1875 C 0.375,0 0.46875,0 0.65625,0 h 5.171875 c 0.234375,0 0.25,-0.015625 0.3125,-0.171875 z m 0,0"
             id="id-bfc8268c-6a87-487d-a962-87f53554c838"
             style="stroke:none;stroke-width:1.00006;stroke-dasharray:none" />
        </g>
      </g>
      <g
         fill="#000000"
         fill-opacity="1"
         id="id-dbfb6e7c-0902-4346-b5c4-cbc48a768466"
         transform="translate(-149.087,-127.258)"
         style="stroke:none;stroke-width:1.00006;stroke-dasharray:none">
        <g
           transform="translate(156.641,131.149)"
           id="g887"
           style="stroke:none;stroke-width:1.00006;stroke-dasharray:none">
          <path
             d="m 2.015625,-3.296875 c 0.0625,-0.109375 0.0625,-0.171875 0.0625,-0.21875 0,-0.21875 -0.1875,-0.375 -0.40625,-0.375 -0.265625,0 -0.34375,0.21875 -0.375,0.328125 L 0.375,-0.546875 c -0.015625,0.015625 -0.046875,0.09375 -0.046875,0.109375 0,0.078125 0.21875,0.15625 0.28125,0.15625 0.046875,0 0.046875,-0.015625 0.09375,-0.125 z m 0,0"
             id="id-222ad8c5-fbc0-4fee-bbb8-88795630eb56"
             style="stroke:none;stroke-width:1.00006;stroke-dasharray:none" />
        </g>
      </g>
    </g>
    <g
       transform="matrix(0.56763081,0,0,0.5946427,122.3854,184.0481)"
       ns2:version="1.8.2"
       ns2:texconverter="pdflatex"
       ns2:pdfconverter="inkscape"
       ns2:text="$E^{\\prime\\prime}$"
       ns2:preamble="/home/kyrem1/.config/inkscape/extensions/textext/default_packages.tex"
       ns2:scale="3.0"
       ns2:alignment="middle center"
       ns2:stroke-to-path="0"
       ns2:jacobian_sqrt="1.05833"
       id="g1025">
      <defs
         id="id-283f6167-0dd3-4fba-b940-a8298e987dfd">
        <g
           id="id-a20e1ef6-f141-4370-91c3-88bd1d1d830f">
          <g
             id="id-49b1195c-ce53-430b-896c-5575666da364" />
          <g
             id="id-56f757a2-befa-48f0-aec2-f9f200d2d121">
            <path
               d="M 7.0625,-2.328125 C 7.078125,-2.375 7.109375,-2.4375 7.109375,-2.46875 c 0,0 0,-0.109375 -0.125,-0.109375 -0.09375,0 -0.109375,0.0625 -0.125,0.125 C 6.203125,-0.984375 5.84375,-0.3125 4.140625,-0.3125 H 2.6875 c -0.140625,0 -0.171875,0 -0.21875,0 -0.109375,-0.015625 -0.140625,-0.03125 -0.140625,-0.109375 0,-0.03125 0,-0.046875 0.046875,-0.21875 L 3.0625,-3.375 h 0.984375 c 0.84375,0 0.84375,0.21875 0.84375,0.46875 0,0.0625 0,0.1875 -0.0625,0.484375 C 4.8125,-2.375 4.796875,-2.34375 4.796875,-2.3125 c 0,0.046875 0.03125,0.109375 0.125,0.109375 C 5,-2.203125 5.03125,-2.25 5.078125,-2.40625 l 0.5625,-2.328125 c 0,-0.0625 -0.046875,-0.109375 -0.125,-0.109375 -0.078125,0 -0.109375,0.0625 -0.125,0.171875 -0.21875,0.765625 -0.390625,1 -1.3125,1 h -0.9375 l 0.59375,-2.40625 C 3.828125,-6.4375 3.84375,-6.46875 4.28125,-6.46875 H 5.6875 c 1.203125,0 1.515625,0.28125 1.515625,1.109375 0,0.234375 0,0.25 -0.046875,0.53125 0,0.046875 -0.015625,0.125 -0.015625,0.171875 0,0.046875 0.03125,0.125 0.125,0.125 0.109375,0 0.125,-0.0625 0.140625,-0.25 L 7.609375,-6.515625 C 7.640625,-6.78125 7.59375,-6.78125 7.34375,-6.78125 H 2.296875 c -0.1875,0 -0.296875,0 -0.296875,0.203125 0,0.109375 0.09375,0.109375 0.28125,0.109375 0.375,0 0.65625,0 0.65625,0.171875 0,0.046875 0,0.0625 -0.0625,0.25 L 1.5625,-0.78125 c -0.09375,0.390625 -0.109375,0.46875 -0.90625,0.46875 -0.171875,0 -0.28125,0 -0.28125,0.1875 C 0.375,0 0.46875,0 0.65625,0 h 5.171875 c 0.234375,0 0.25,-0.015625 0.3125,-0.171875 z m 0,0"
               id="id-64c07a3e-b395-48ec-af4f-9227acc9d0fb" />
          </g>
          <g
             id="id-6124138a-47fe-4caf-b3ae-08fb31b196af" />
          <g
             id="id-34c59552-1535-45c4-87a4-cc591bbf4ea8">
            <path
               d="m 2.015625,-3.296875 c 0.0625,-0.109375 0.0625,-0.171875 0.0625,-0.21875 0,-0.21875 -0.1875,-0.375 -0.40625,-0.375 -0.265625,0 -0.34375,0.21875 -0.375,0.328125 L 0.375,-0.546875 c -0.015625,0.015625 -0.046875,0.09375 -0.046875,0.109375 0,0.078125 0.21875,0.15625 0.28125,0.15625 0.046875,0 0.046875,-0.015625 0.09375,-0.125 z m 0,0"
               id="id-562cd630-a9a6-4435-a899-be10ee407ad4" />
          </g>
        </g>
      </defs>
      <g
         fill="#000000"
         fill-opacity="1"
         id="id-ec25bfb3-0b39-4e02-bb38-441cbd524610"
         transform="translate(-149.087,-127.258)">
        <g
           transform="translate(148.712,134.765)"
           id="g1015">
          <path
             d="M 7.0625,-2.328125 C 7.078125,-2.375 7.109375,-2.4375 7.109375,-2.46875 c 0,0 0,-0.109375 -0.125,-0.109375 -0.09375,0 -0.109375,0.0625 -0.125,0.125 C 6.203125,-0.984375 5.84375,-0.3125 4.140625,-0.3125 H 2.6875 c -0.140625,0 -0.171875,0 -0.21875,0 -0.109375,-0.015625 -0.140625,-0.03125 -0.140625,-0.109375 0,-0.03125 0,-0.046875 0.046875,-0.21875 L 3.0625,-3.375 h 0.984375 c 0.84375,0 0.84375,0.21875 0.84375,0.46875 0,0.0625 0,0.1875 -0.0625,0.484375 C 4.8125,-2.375 4.796875,-2.34375 4.796875,-2.3125 c 0,0.046875 0.03125,0.109375 0.125,0.109375 C 5,-2.203125 5.03125,-2.25 5.078125,-2.40625 l 0.5625,-2.328125 c 0,-0.0625 -0.046875,-0.109375 -0.125,-0.109375 -0.078125,0 -0.109375,0.0625 -0.125,0.171875 -0.21875,0.765625 -0.390625,1 -1.3125,1 h -0.9375 l 0.59375,-2.40625 C 3.828125,-6.4375 3.84375,-6.46875 4.28125,-6.46875 H 5.6875 c 1.203125,0 1.515625,0.28125 1.515625,1.109375 0,0.234375 0,0.25 -0.046875,0.53125 0,0.046875 -0.015625,0.125 -0.015625,0.171875 0,0.046875 0.03125,0.125 0.125,0.125 0.109375,0 0.125,-0.0625 0.140625,-0.25 L 7.609375,-6.515625 C 7.640625,-6.78125 7.59375,-6.78125 7.34375,-6.78125 H 2.296875 c -0.1875,0 -0.296875,0 -0.296875,0.203125 0,0.109375 0.09375,0.109375 0.28125,0.109375 0.375,0 0.65625,0 0.65625,0.171875 0,0.046875 0,0.0625 -0.0625,0.25 L 1.5625,-0.78125 c -0.09375,0.390625 -0.109375,0.46875 -0.90625,0.46875 -0.171875,0 -0.28125,0 -0.28125,0.1875 C 0.375,0 0.46875,0 0.65625,0 h 5.171875 c 0.234375,0 0.25,-0.015625 0.3125,-0.171875 z m 0,0"
             id="id-68e7e09b-b8a3-41af-bcc6-3ab66f125c63" />
        </g>
      </g>
      <g
         fill="#000000"
         fill-opacity="1"
         id="id-897a3e12-eab8-463d-a9db-c4eb8f92182e"
         transform="translate(-149.087,-127.258)">
        <g
           transform="translate(156.641,131.149)"
           id="g1019">
          <path
             d="m 2.015625,-3.296875 c 0.0625,-0.109375 0.0625,-0.171875 0.0625,-0.21875 0,-0.21875 -0.1875,-0.375 -0.40625,-0.375 -0.265625,0 -0.34375,0.21875 -0.375,0.328125 L 0.375,-0.546875 c -0.015625,0.015625 -0.046875,0.09375 -0.046875,0.109375 0,0.078125 0.21875,0.15625 0.28125,0.15625 0.046875,0 0.046875,-0.015625 0.09375,-0.125 z m 0,0"
             id="id-055c63a6-bd3f-493c-8cdf-c3ab4e90c9ba" />
        </g>
        <g
           transform="translate(158.938,131.149)"
           id="g1022">
          <path
             d="m 2.015625,-3.296875 c 0.0625,-0.109375 0.0625,-0.171875 0.0625,-0.21875 0,-0.21875 -0.1875,-0.375 -0.40625,-0.375 -0.265625,0 -0.34375,0.21875 -0.375,0.328125 L 0.375,-0.546875 c -0.015625,0.015625 -0.046875,0.09375 -0.046875,0.109375 0,0.078125 0.21875,0.15625 0.28125,0.15625 0.046875,0 0.046875,-0.015625 0.09375,-0.125 z m 0,0"
             id="id-9e82343a-381e-4964-9efd-1b346694c3bb" />
        </g>
      </g>
    </g>
    <g
       transform="matrix(0.56206854,0,0,0.58881573,82.290391,137.58951)"
       ns2:version="1.8.2"
       ns2:texconverter="pdflatex"
       ns2:pdfconverter="inkscape"
       ns2:text="$O^{\\prime}$\n"
       ns2:preamble="/home/kyrem1/.config/inkscape/extensions/textext/default_packages.tex"
       ns2:scale="3.0"
       ns2:alignment="middle center"
       ns2:stroke-to-path="0"
       ns2:jacobian_sqrt="1.05833"
       id="g1136">
      <defs
         id="id-ad642e4f-b672-4920-9bd8-ed5cef923369">
        <g
           id="id-fe1f302c-b296-4e65-aed1-15b2906911d6">
          <g
             id="id-3e9fd815-d818-4569-992d-b323bb29bbb4" />
          <g
             id="id-e8fefa99-de40-46f7-8cff-7cc65367f981">
            <path
               d="m 7.375,-4.34375 c 0,-1.609375 -1.0625,-2.6875 -2.546875,-2.6875 -2.140625,0 -4.34375,2.265625 -4.34375,4.59375 0,1.65625 1.125,2.65625 2.5625,2.65625 2.109375,0 4.328125,-2.1875 4.328125,-4.5625 z m -4.28125,4.296875 c -0.984375,0 -1.671875,-0.796875 -1.671875,-2.109375 0,-0.453125 0.140625,-1.90625 0.90625,-3.0625 0.6875,-1.046875 1.65625,-1.5625 2.453125,-1.5625 0.8125,0 1.703125,0.5625 1.703125,2.046875 0,0.71875 -0.265625,2.265625 -1.25,3.5 C 4.75,-0.625 3.9375,-0.046875 3.09375,-0.046875 Z m 0,0"
               id="id-f35cfc70-7fb7-42ea-b383-61237ad7900e" />
          </g>
          <g
             id="id-53c611b1-49aa-4588-9b6f-5d0d7f7f42a9" />
          <g
             id="id-4a501096-e76d-4c9e-b6d7-e3ff20806499">
            <path
               d="m 2.015625,-3.296875 c 0.0625,-0.109375 0.0625,-0.171875 0.0625,-0.21875 0,-0.21875 -0.1875,-0.375 -0.40625,-0.375 -0.265625,0 -0.34375,0.21875 -0.375,0.328125 L 0.375,-0.546875 c -0.015625,0.015625 -0.046875,0.09375 -0.046875,0.109375 0,0.078125 0.21875,0.15625 0.28125,0.15625 0.046875,0 0.046875,-0.015625 0.09375,-0.125 z m 0,0"
               id="id-740569ae-5207-445d-9d51-c407f135b7f6" />
          </g>
        </g>
      </defs>
      <g
         fill="#000000"
         fill-opacity="1"
         id="id-e5d1087b-5965-4ea7-9d7e-f03183450161"
         transform="translate(-149.196,-127.258)">
        <g
           transform="translate(148.712,134.765)"
           id="g1129">
          <path
             d="m 7.375,-4.34375 c 0,-1.609375 -1.0625,-2.6875 -2.546875,-2.6875 -2.140625,0 -4.34375,2.265625 -4.34375,4.59375 0,1.65625 1.125,2.65625 2.5625,2.65625 2.109375,0 4.328125,-2.1875 4.328125,-4.5625 z m -4.28125,4.296875 c -0.984375,0 -1.671875,-0.796875 -1.671875,-2.109375 0,-0.453125 0.140625,-1.90625 0.90625,-3.0625 0.6875,-1.046875 1.65625,-1.5625 2.453125,-1.5625 0.8125,0 1.703125,0.5625 1.703125,2.046875 0,0.71875 -0.265625,2.265625 -1.25,3.5 C 4.75,-0.625 3.9375,-0.046875 3.09375,-0.046875 Z m 0,0"
             id="id-e413e707-9071-4280-b69d-0a7fbb92c0c9" />
        </g>
      </g>
      <g
         fill="#000000"
         fill-opacity="1"
         id="id-e761d383-cf14-43df-93ab-fe01f4a2180f"
         transform="translate(-149.196,-127.258)">
        <g
           transform="translate(156.588,131.149)"
           id="g1133">
          <path
             d="m 2.015625,-3.296875 c 0.0625,-0.109375 0.0625,-0.171875 0.0625,-0.21875 0,-0.21875 -0.1875,-0.375 -0.40625,-0.375 -0.265625,0 -0.34375,0.21875 -0.375,0.328125 L 0.375,-0.546875 c -0.015625,0.015625 -0.046875,0.09375 -0.046875,0.109375 0,0.078125 0.21875,0.15625 0.28125,0.15625 0.046875,0 0.046875,-0.015625 0.09375,-0.125 z m 0,0"
             id="id-ce5f2791-9ea8-47a4-9510-39f187ee8447" />
        </g>
      </g>
    </g>
    <g
       transform="matrix(0.55128017,0,0,0.57751398,128.04854,127.59971)"
       ns2:version="1.8.2"
       ns2:texconverter="pdflatex"
       ns2:pdfconverter="inkscape"
       ns2:text="$O^{\\prime\\prime}$\n"
       ns2:preamble="/home/kyrem1/.config/inkscape/extensions/textext/default_packages.tex"
       ns2:scale="3.0"
       ns2:alignment="middle center"
       ns2:stroke-to-path="0"
       ns2:jacobian_sqrt="1.05833"
       id="g1278">
      <defs
         id="id-6931618c-11f9-48ab-a481-3bba53c1448a">
        <g
           id="id-fa2d23ca-a109-40bd-94b8-5eca64cc9d30">
          <g
             id="id-a7e2537c-1589-4bc7-92af-12c9525229f1" />
          <g
             id="id-cae1ac42-93e3-4fb6-8adc-4961d42f1c23">
            <path
               d="m 7.375,-4.34375 c 0,-1.609375 -1.0625,-2.6875 -2.546875,-2.6875 -2.140625,0 -4.34375,2.265625 -4.34375,4.59375 0,1.65625 1.125,2.65625 2.5625,2.65625 2.109375,0 4.328125,-2.1875 4.328125,-4.5625 z m -4.28125,4.296875 c -0.984375,0 -1.671875,-0.796875 -1.671875,-2.109375 0,-0.453125 0.140625,-1.90625 0.90625,-3.0625 0.6875,-1.046875 1.65625,-1.5625 2.453125,-1.5625 0.8125,0 1.703125,0.5625 1.703125,2.046875 0,0.71875 -0.265625,2.265625 -1.25,3.5 C 4.75,-0.625 3.9375,-0.046875 3.09375,-0.046875 Z m 0,0"
               id="id-7301d460-d50d-4baa-a761-900055819229" />
          </g>
          <g
             id="id-46e38ca6-aaa8-4bfb-98f1-3c1b74de8501" />
          <g
             id="id-73fffecb-9a8b-4494-a0c4-2ec5b626f77d">
            <path
               d="m 2.015625,-3.296875 c 0.0625,-0.109375 0.0625,-0.171875 0.0625,-0.21875 0,-0.21875 -0.1875,-0.375 -0.40625,-0.375 -0.265625,0 -0.34375,0.21875 -0.375,0.328125 L 0.375,-0.546875 c -0.015625,0.015625 -0.046875,0.09375 -0.046875,0.109375 0,0.078125 0.21875,0.15625 0.28125,0.15625 0.046875,0 0.046875,-0.015625 0.09375,-0.125 z m 0,0"
               id="id-54db47df-a212-4e70-892e-f8d37f7eced8" />
          </g>
        </g>
      </defs>
      <g
         fill="#000000"
         fill-opacity="1"
         id="id-d021733f-29a0-41f3-9675-d164d686a518"
         transform="translate(-149.196,-127.258)">
        <g
           transform="translate(148.712,134.765)"
           id="g1268">
          <path
             d="m 7.375,-4.34375 c 0,-1.609375 -1.0625,-2.6875 -2.546875,-2.6875 -2.140625,0 -4.34375,2.265625 -4.34375,4.59375 0,1.65625 1.125,2.65625 2.5625,2.65625 2.109375,0 4.328125,-2.1875 4.328125,-4.5625 z m -4.28125,4.296875 c -0.984375,0 -1.671875,-0.796875 -1.671875,-2.109375 0,-0.453125 0.140625,-1.90625 0.90625,-3.0625 0.6875,-1.046875 1.65625,-1.5625 2.453125,-1.5625 0.8125,0 1.703125,0.5625 1.703125,2.046875 0,0.71875 -0.265625,2.265625 -1.25,3.5 C 4.75,-0.625 3.9375,-0.046875 3.09375,-0.046875 Z m 0,0"
             id="id-c4fb8fad-b508-43cb-a9fc-eeb490d6a3ab" />
        </g>
      </g>
      <g
         fill="#000000"
         fill-opacity="1"
         id="id-bb9b0ab3-3d18-4253-9a2d-55a882baa35a"
         transform="translate(-149.196,-127.258)">
        <g
           transform="translate(156.588,131.149)"
           id="g1272">
          <path
             d="m 2.015625,-3.296875 c 0.0625,-0.109375 0.0625,-0.171875 0.0625,-0.21875 0,-0.21875 -0.1875,-0.375 -0.40625,-0.375 -0.265625,0 -0.34375,0.21875 -0.375,0.328125 L 0.375,-0.546875 c -0.015625,0.015625 -0.046875,0.09375 -0.046875,0.109375 0,0.078125 0.21875,0.15625 0.28125,0.15625 0.046875,0 0.046875,-0.015625 0.09375,-0.125 z m 0,0"
             id="id-00a7aabb-af8e-4c89-bbf2-48b3d2ac04da" />
        </g>
        <g
           transform="translate(158.885,131.149)"
           id="g1275">
          <path
             d="m 2.015625,-3.296875 c 0.0625,-0.109375 0.0625,-0.171875 0.0625,-0.21875 0,-0.21875 -0.1875,-0.375 -0.40625,-0.375 -0.265625,0 -0.34375,0.21875 -0.375,0.328125 L 0.375,-0.546875 c -0.015625,0.015625 -0.046875,0.09375 -0.046875,0.109375 0,0.078125 0.21875,0.15625 0.28125,0.15625 0.046875,0 0.046875,-0.015625 0.09375,-0.125 z m 0,0"
             id="id-2b69e969-a88e-427c-a00a-f3255d68b59b" />
        </g>
      </g>
    </g>
    <path
       style="fill:none;fill-rule:evenodd;stroke:#000000;stroke-width:0.225731;stroke-dasharray:0.225731, 0.451461;stroke-dashoffset:0.677192;marker-start:url(#marker5669-7);marker-end:url(#marker5669-7)"
       d="m 76.759753,167.78606 c 0,0 0.350507,-12.53853 5.877175,-23.00033"
       id="path2135" />
    <path
       style="fill:none;fill-rule:evenodd;stroke:#000000;stroke-width:0.234007;stroke-dasharray:0.234007, 0.468016;stroke-dashoffset:0.702022;marker-start:url(#marker5669-7);marker-end:url(#marker5669-7)"
       d="m 82.084251,170.59737 c 0,0 27.121719,-13.75777 44.403409,-36.67338"
       id="path13921" />
    <path
       style="fill:none;fill-rule:evenodd;stroke:#000000;stroke-width:0.234007;stroke-dasharray:0.234007, 0.468016;stroke-dashoffset:0.702022;marker-start:url(#marker5669-7);marker-end:url(#marker5669-7)"
       d="m 87.368659,143.05077 c 0,0 23.589771,19.36466 34.350311,38.79894"
       id="path13965" />
  </g>
</svg>
